<svg class="img-fluid" id="outputsvg" xmlns="http://www.w3.org/2000/svg" style="transform: none; transform-origin: 50% 50%; cursor: move;" width="104" height="81" viewBox="0 0 1040 810"><g id="l3dFhghmkk9qSAyT4EYAQsC" fill="rgb(29,29,27)" style="transform: none;"><g><path id="pDTSog6aU" d="M655 791 c-3 -6 -17 -11 -30 -11 -13 0 -25 -3 -27 -7 -1 -5 -19 -16 -38 -26 -33 -18 -35 -18 -47 -1 -12 17 -15 17 -58 -4 -25 -12 -45 -26 -45 -31 0 -5 -9 -13 -20 -16 -11 -4 -34 -18 -50 -32 -28 -23 -32 -24 -48 -10 -16 15 -20 14 -50 -5 -18 -11 -39 -33 -47 -49 -8 -15 -24 -30 -35 -34 -11 -3 -23 -17 -26 -31 -3 -13 -10 -24 -15 -24 -33 0 -60 -210 -33 -262 13 -25 13 -28 -7 -39 -17 -8 -23 -8 -29 1 -11 17 -27 5 -32 -25 -4 -20 -1 -25 16 -25 11 0 34 8 51 18 l29 18 38 -40 c21 -21 38 -42 38 -45 0 -16 54 -61 78 -67 15 -3 38 -8 52 -11 14 -3 32 -5 42 -4 9 1 19 -3 23 -9 8 -12 39 -13 63 -1 30 17 56 23 92 25 28 1 34 5 32 19 -2 14 2 16 23 11 31 -8 58 12 50 37 -8 24 2 24 55 0 52 -23 67 -19 75 20 4 19 13 29 24 29 27 0 33 12 15 31 -14 16 -12 18 35 30 50 12 51 13 36 35 -15 23 -5 42 14 29 6 -3 18 6 28 21 10 14 26 34 35 45 14 15 15 20 4 26 -19 11 -9 64 10 56 8 -3 15 -1 15 3 1 5 3 19 4 31 1 13 7 28 12 35 17 21 25 68 12 68 -15 0 -103 43 -107 52 -7 15 -93 50 -108 44 -9 -4 -22 -2 -29 4 -7 6 -30 13 -51 16 -52 6 -61 17 -46 57 7 17 14 36 15 41 3 14 -30 19 -38 7z m-27 -130 c2 -6 21 -15 43 -21 23 -6 39 -17 39 -25 0 -12 14 -15 60 -15 l60 0 0 -31 c0 -30 1 -31 48 -29 72 4 72 4 59 -25 -7 -14 -15 -25 -19 -25 -5 0 -8 -13 -8 -30 0 -16 -4 -30 -9 -30 -6 0 -11 -21 -13 -47 -3 -44 -5 -48 -32 -53 -28 -5 -39 -16 -50 -52 -4 -13 -16 -18 -41 -18 -30 0 -35 -3 -35 -22 0 -59 -7 -65 -73 -64 -57 1 -62 -1 -65 -21 -2 -16 -10 -23 -25 -23 -12 0 -31 -7 -41 -15 -12 -9 -42 -15 -73 -15 -33 0 -53 -4 -53 -11 0 -22 -107 -5 -135 21 -14 13 -25 28 -25 34 0 6 -16 26 -35 45 -19 19 -35 41 -35 50 0 9 -9 22 -20 29 -17 10 -20 23 -20 78 0 56 5 75 30 119 17 29 37 56 45 59 8 3 24 20 35 38 13 22 20 27 20 16 0 -14 9 -18 39 -18 34 0 42 5 61 35 15 24 29 35 46 35 14 0 31 11 44 28 21 28 21 28 98 21 42 -5 78 -13 80 -18z"></path></g></g><g id="lWgID7O5uuIaqNOpysILTU" fill="rgb(151,180,92)" style="transform: none;"><g><path id="p16q6lxEL1" d="M645 760 c-4 -6 -10 -8 -15 -5 -5 3 -11 1 -15 -5 -3 -5 -15 -10 -26 -10 -11 0 -22 -7 -25 -15 -7 -17 -49 -20 -59 -5 -12 20 -47 9 -76 -22 -16 -18 -35 -34 -42 -34 -7 -1 -17 -2 -24 -3 -6 0 -21 -17 -33 -36 -27 -43 -36 -44 -45 -4 -6 28 -8 29 -24 15 -10 -9 -23 -16 -29 -16 -7 0 -12 -5 -12 -11 0 -7 -15 -26 -33 -43 -65 -61 -85 -110 -89 -215 -2 -86 -1 -94 20 -111 12 -10 22 -25 22 -33 0 -8 16 -29 35 -48 19 -19 35 -39 35 -45 0 -34 102 -80 149 -67 10 3 22 0 25 -6 11 -18 34 -13 41 9 5 17 10 18 27 9 15 -8 22 -8 28 1 4 7 16 9 29 5 14 -4 28 0 42 14 15 14 30 19 46 15 20 -5 23 -2 23 20 0 37 20 41 76 17 50 -23 70 -16 58 20 -3 11 3 18 18 22 21 6 21 7 5 25 -24 26 -21 32 16 33 37 1 92 16 65 18 -39 2 -11 51 29 51 31 0 60 54 41 77 -10 13 -10 17 0 20 6 3 12 18 12 34 0 23 4 29 23 29 17 0 19 2 7 10 -12 8 -12 11 2 27 8 10 19 28 22 40 6 18 0 23 -38 38 -35 13 -48 15 -66 5 -27 -15 -35 -8 -20 19 9 18 8 22 -7 28 -10 4 -21 11 -25 17 -5 7 -18 7 -41 -2 -43 -16 -57 -15 -57 2 0 16 -24 29 -67 34 -6 1 -15 12 -18 23 -6 17 -9 18 -16 8 -4 -7 -11 -10 -15 -6 -4 4 5 18 19 31 15 14 27 28 27 31 0 9 -19 5 -25 -5z"></path></g></g><g id="l2DhldzcjCTCE1Dg1UTsxCF" fill="rgb(255,255,255)" style="transform: none;"><g><path id="pAFRs2ilc" d="M530 599 c-7 -11 -9 -24 -5 -27 7 -7 35 25 35 40 0 16 -19 8 -30 -13z"></path><path id="p1E2PlrQHO" d="M397 586 c-3 -8 -2 -18 3 -21 13 -8 24 15 12 27 -6 6 -11 4 -15 -6z"></path><path id="pHrzDeuaj" d="M630 565 c0 -8 5 -15 10 -15 6 0 10 7 10 15 0 8 -4 15 -10 15 -5 0 -10 -7 -10 -15z"></path><path id="ptZKm07aQ" d="M700 571 c0 -5 -11 -12 -24 -15 -13 -3 -47 -28 -76 -55 -72 -67 -131 -81 -101 -23 15 29 22 72 12 72 -5 0 -13 -10 -16 -22 -17 -60 -51 -107 -87 -124 -21 -9 -41 -14 -45 -11 -3 4 4 33 16 65 23 66 26 82 11 82 -5 0 -10 -13 -10 -30 0 -19 -5 -30 -14 -30 -7 0 -19 -20 -26 -45 -8 -29 -25 -56 -47 -75 -52 -46 -61 -41 -65 41 -2 38 0 73 4 77 10 10 22 88 12 79 -22 -21 -38 -89 -39 -167 l-2 -85 -31 -10 c-38 -11 -42 -32 -8 -45 13 -5 32 -26 42 -49 11 -22 22 -41 27 -41 14 0 7 38 -13 63 -49 62 -15 49 87 -34 85 -68 101 -78 151 -93 35 -11 26 12 -10 27 -44 19 -198 136 -198 150 0 7 12 20 25 30 21 15 30 16 72 6 56 -13 144 -49 158 -65 9 -10 161 -94 171 -94 2 0 4 4 4 9 0 14 -150 107 -166 103 -8 -2 -14 3 -14 11 0 14 -90 47 -128 47 -32 0 -27 15 14 40 61 39 185 16 255 -46 8 -8 25 -14 37 -14 12 0 45 -9 74 -20 28 -11 54 -17 57 -14 10 10 -39 43 -77 53 -113 30 -132 36 -132 42 0 4 -18 14 -41 23 -22 9 -37 21 -34 26 9 15 69 12 101 -5 31 -16 64 -20 64 -7 0 4 -15 14 -32 21 l-33 14 53 10 c42 8 56 7 70 -5 22 -19 52 -30 52 -19 0 5 -7 14 -15 21 -22 19 -10 29 45 36 59 8 68 28 10 22 -48 -4 -49 12 -2 26 18 5 32 15 32 22 0 17 0 17 -43 -1 -20 -8 -43 -25 -51 -37 -12 -17 -24 -22 -50 -20 -19 1 -53 -2 -75 -7 -50 -11 -51 -4 -5 29 19 14 41 31 49 38 7 6 18 12 24 12 6 0 11 5 11 10 0 6 -7 10 -15 10 -8 0 -15 -4 -15 -9z"></path><path id="p1CIvIznIZ" d="M916 515 c-15 -12 -17 -18 -8 -27 9 -9 18 -5 38 15 23 24 24 27 8 27 -11 0 -28 -7 -38 -15z"></path><path id="pZCXZsNCE" d="M117 406 c-3 -8 3 -22 14 -32 17 -15 19 -15 19 -1 0 39 -22 61 -33 33z"></path><path id="pOB6BHCaz" d="M755 369 c-9 -14 4 -29 25 -29 13 0 17 -5 13 -19 -5 -22 25 -37 41 -21 8 8 7 14 -4 20 -11 7 -3 10 28 10 23 0 42 5 42 10 0 6 -13 10 -29 10 -16 0 -47 7 -69 14 -25 9 -44 11 -47 5z"></path><path id="pOnbOplvW" d="M130 343 c0 -5 5 -15 10 -23 8 -12 10 -11 10 8 0 12 -4 22 -10 22 -5 0 -10 -3 -10 -7z"></path></g></g></svg>