<svg class="img-fluid" id="outputsvg" xmlns="http://www.w3.org/2000/svg" style="transform: none; transform-origin: 50% 50%; cursor: move;" width="160" height="103" viewBox="0 0 1600 1030"><g id="l7OpZ76vi0jt24P8h8euJyU" fill="rgb(0,0,0)" style="transform: none;"><g><path id="pGFwS8Yif" d="M626 1007 c-23 -17 -39 -108 -25 -144 5 -14 8 -27 6 -29 -2 -2 -25 5 -53 15 -48 18 -74 47 -74 83 0 25 -14 29 -40 11 -21 -15 -22 -21 -17 -84 3 -37 11 -78 17 -89 12 -22 11 -22 -67 -15 -53 4 -87 13 -105 26 l-28 20 0 -41 c0 -44 21 -104 47 -132 9 -10 14 -20 12 -22 -2 -2 -29 -8 -59 -14 -30 -6 -74 -15 -98 -21 -33 -9 -50 -8 -76 3 -81 34 -69 -35 14 -82 l51 -30 -36 -6 c-20 -4 -39 -14 -42 -23 -8 -20 40 -63 70 -63 12 0 29 -5 37 -10 13 -9 11 -13 -10 -30 -14 -11 -37 -20 -52 -20 -16 0 -28 -3 -28 -6 0 -19 26 -47 60 -64 43 -22 87 -25 140 -10 30 9 37 7 62 -17 26 -24 26 -27 13 -54 -20 -37 -19 -94 1 -114 17 -17 42 -13 81 11 12 8 40 14 61 14 46 0 118 42 156 93 24 32 31 35 52 26 37 -13 47 -12 88 16 20 14 38 25 40 25 2 0 6 -24 9 -54 7 -66 28 -110 64 -130 91 -49 87 -48 131 -37 22 7 44 16 47 21 3 5 -2 24 -11 43 -19 40 -13 67 13 67 10 0 41 -11 68 -25 28 -13 62 -25 76 -25 32 0 54 21 38 37 -8 8 -8 20 2 42 11 23 20 31 39 30 14 -1 50 5 80 13 43 12 56 20 58 37 6 35 -24 69 -70 82 -52 13 -138 50 -138 58 0 4 24 12 53 19 28 7 64 21 79 32 15 11 39 20 53 20 29 0 94 30 142 67 29 21 32 29 30 65 -3 46 -17 56 -80 57 -35 1 -37 3 -27 21 6 11 16 20 23 20 8 0 26 13 41 29 41 43 34 90 -16 114 -33 16 -43 17 -75 6 -21 -6 -50 -20 -65 -30 -14 -11 -36 -19 -47 -19 -18 0 -20 3 -11 20 15 29 -20 44 -82 36 -47 -7 -49 -6 -38 14 6 11 12 43 13 71 2 49 0 53 -30 70 -49 28 -93 10 -167 -66 -81 -83 -119 -131 -145 -183 -24 -46 -35 -48 -45 -5 -10 40 -161 261 -185 271 -4 1 -15 -4 -25 -11z m533 -66 c12 -8 10 -16 -13 -50 -15 -22 -34 -42 -42 -45 -8 -3 -14 -12 -14 -21 0 -10 -10 -15 -28 -15 -33 0 -55 -21 -69 -65 -7 -22 -17 -31 -36 -33 -30 -4 -35 9 -11 29 9 7 33 38 54 69 36 53 121 140 137 140 5 0 14 -4 22 -9z m-413 -159 c20 -29 33 -56 30 -59 -3 -4 -6 -1 -6 6 0 6 -20 32 -45 56 -25 24 -52 61 -61 82 l-15 38 31 -35 c16 -19 46 -59 66 -88z m-213 7 c33 -18 99 -71 93 -76 -6 -6 -109 47 -118 61 -18 26 -8 32 25 15z m727 -14 c0 -27 -58 -80 -130 -119 -39 -21 -73 -36 -75 -34 -3 2 18 21 45 42 28 21 60 52 72 68 16 23 62 54 86 58 1 0 2 -7 2 -15z m244 7 c6 -10 -120 -124 -161 -146 -18 -9 -40 -16 -50 -16 -15 0 -13 4 9 25 14 13 31 40 38 60 10 29 16 35 39 35 16 0 39 8 52 19 36 28 64 37 73 23z m-1070 -102 c55 -18 64 -23 53 -34 -7 -8 -32 -17 -55 -21 -38 -6 -44 -4 -84 34 l-43 40 31 1 c18 0 62 -9 98 -20z m1081 -106 c-35 -27 -90 -52 -130 -60 -21 -4 -54 -17 -73 -30 -43 -29 -86 -37 -137 -26 l-40 8 55 8 c51 7 118 32 245 91 28 13 61 24 75 24 25 0 25 0 5 -15z m-1132 -48 l39 -13 -32 -7 c-43 -8 -160 -6 -185 3 -18 7 -17 9 10 19 42 15 123 14 168 -2z m11 -142 c4 -10 -1 -22 -11 -30 -39 -30 -142 -75 -164 -72 -20 2 -8 13 65 61 49 31 92 57 96 57 5 0 11 -7 14 -16z m836 -73 c36 -17 75 -31 88 -31 12 0 22 -4 22 -10 0 -6 -24 -7 -62 -4 -79 8 -193 59 -175 79 14 15 38 9 127 -34z m-661 -81 c5 0 11 -9 14 -20 7 -27 -73 -76 -135 -83 -27 -2 -48 -3 -48 -2 0 1 18 14 40 29 22 14 57 52 77 83 l38 57 3 -32 c2 -18 7 -32 11 -32z m351 -50 c0 -11 5 -20 10 -20 6 0 10 -9 10 -20 0 -29 -29 -25 -40 6 -14 36 -12 54 5 54 8 0 15 -9 15 -20z m82 -90 c5 -34 -2 -38 -24 -12 -29 34 -30 42 -5 42 20 0 26 -6 29 -30z"></path></g></g><g id="l7cZST4kZTeoSW7vEKNEYUz" fill="rgb(255,255,255)" style="transform: none;"><g><path id="pOkMcMo2L" d="M626 974 c-11 -29 -6 -103 10 -143 9 -22 30 -51 47 -64 18 -13 48 -52 67 -85 41 -71 61 -80 54 -24 l-5 37 21 -35 21 -35 -6 45 c-4 25 -17 66 -30 92 -24 47 -155 226 -166 227 -4 1 -10 -6 -13 -15z"></path><path id="pIqWeCbTp" d="M1105 976 c-73 -32 -235 -252 -235 -318 0 -23 4 -28 23 -28 16 0 28 9 35 25 6 14 16 25 20 25 5 0 7 -11 4 -25 -2 -14 0 -25 4 -25 16 0 54 48 66 82 14 43 36 68 61 68 18 0 18 -2 -7 -25 -14 -13 -26 -30 -26 -36 0 -7 16 2 35 21 19 19 35 40 35 47 0 8 16 30 35 50 19 20 40 54 47 76 11 36 10 40 -13 58 -28 22 -44 23 -84 5z"></path><path id="p1HcWXwQm5" d="M445 911 c-9 -16 4 -99 21 -142 12 -27 28 -42 70 -62 30 -15 64 -27 76 -27 11 0 36 -16 55 -36 19 -20 37 -33 41 -29 4 3 -5 16 -21 27 -26 19 -37 48 -18 48 5 0 23 -16 40 -35 57 -65 71 -37 16 31 -42 51 -119 110 -189 144 -34 17 -56 36 -68 58 -9 19 -19 29 -23 23z"></path><path id="p65hqcSxC" d="M1193 805 c-17 -7 -39 -25 -48 -39 -9 -14 -48 -51 -87 -82 l-70 -56 21 -19 c12 -11 21 -24 21 -29 0 -19 28 -10 111 36 123 67 141 87 154 162 l7 42 -39 0 c-21 -1 -52 -7 -70 -15z"></path><path id="pTDD7ADlv" d="M1440 813 c-8 -3 -26 -14 -39 -24 -13 -11 -36 -19 -51 -19 -23 0 -30 -7 -44 -42 -17 -46 -77 -97 -171 -146 -45 -24 -47 -27 -25 -30 14 -1 55 6 90 17 l65 20 -30 -26 c-34 -28 -32 -28 82 20 62 26 101 52 158 103 75 68 89 96 63 122 -12 12 -71 15 -98 5z m-190 -204 c0 -13 -67 -41 -88 -36 -11 3 -2 11 28 25 51 25 60 26 60 11z"></path><path id="pElzxesqm" d="M270 704 c15 -64 62 -100 175 -132 55 -16 109 -33 120 -37 18 -7 19 -6 4 9 -8 9 -35 20 -59 24 -48 8 -68 32 -26 32 14 0 26 4 26 9 0 6 17 11 37 13 119 10 -50 97 -218 112 l-67 6 8 -36z"></path><path id="pFXXvjCRw" d="M1480 624 c-17 -6 -91 -37 -200 -85 -62 -27 -89 -33 -159 -35 -57 -2 -86 -7 -92 -16 -16 -25 -9 -56 20 -87 28 -30 29 -31 6 -31 -12 0 -34 9 -48 20 -47 37 -39 2 10 -45 57 -53 164 -108 213 -110 19 -1 46 -5 59 -9 27 -9 105 10 122 30 17 20 -5 42 -50 50 -20 3 -70 21 -111 39 -41 18 -104 44 -140 58 -37 14 -66 32 -68 41 -3 14 1 14 40 0 54 -19 145 -29 191 -20 19 4 50 17 69 30 19 13 52 26 73 30 46 9 108 39 134 65 43 43 -5 95 -69 75z"></path><path id="pg9z8S1wT" d="M270 573 c-19 -2 -62 -10 -95 -18 -33 -8 -73 -16 -90 -18 -28 -3 -27 -5 30 -33 60 -29 61 -29 250 -30 139 0 180 2 152 9 -34 8 -38 12 -33 33 5 17 2 24 -8 24 -9 0 -35 6 -58 14 -54 17 -103 24 -148 19z"></path><path id="pV8twqKbf" d="M205 440 c-16 -4 -51 -8 -77 -9 -57 -1 -62 -16 -13 -37 54 -22 105 -18 150 13 40 27 40 27 15 34 -31 9 -37 9 -75 -1z"></path><path id="p16qOQo551" d="M373 431 c-45 -8 -255 -138 -250 -156 2 -5 21 -16 42 -23 56 -19 125 -1 225 58 83 49 147 100 107 86 -53 -18 -64 -18 -70 3 -4 15 2 22 22 30 l26 9 -30 0 c-16 0 -49 -4 -72 -7z"></path><path id="p7cyuZ9eI" d="M900 360 c-26 -16 118 -151 213 -201 91 -47 121 -49 87 -6 l-21 27 25 0 c44 0 38 18 -13 35 -60 20 -151 74 -202 120 -40 36 -62 42 -89 25z m58 -34 c3 -12 -1 -17 -10 -14 -7 3 -15 13 -16 22 -3 12 1 17 10 14 7 -3 15 -13 16 -22z"></path><path id="pwIAQM1Aq" d="M423 302 c-83 -47 -93 -58 -71 -80 24 -24 56 -13 91 31 36 44 72 97 66 97 -2 0 -41 -22 -86 -48z"></path><path id="pAAa7AElb" d="M548 339 c-10 -5 -36 -36 -57 -68 -22 -32 -63 -75 -90 -95 -45 -32 -51 -40 -51 -71 0 -45 17 -52 66 -26 21 12 54 21 73 21 57 0 127 53 162 121 29 59 26 81 -5 34 -20 -30 -42 -35 -26 -6 15 29 13 33 -11 21 -20 -11 -20 -11 -3 21 15 31 15 33 -2 46 -21 15 -33 16 -56 2z"></path><path id="pbrPYsjsC" d="M720 317 c0 -8 -8 -28 -17 -45 -21 -36 -12 -62 22 -62 38 0 65 18 65 42 0 12 7 30 17 40 21 23 14 29 -42 35 -36 5 -45 3 -45 -10z"></path><path id="p18OVXnZ7K" d="M854 284 c-12 -81 20 -215 47 -198 5 3 25 -11 44 -32 30 -32 39 -36 67 -30 17 3 33 8 35 10 3 2 -1 22 -7 45 -6 22 -8 51 -5 64 5 20 0 29 -25 47 -26 19 -33 20 -47 8 -14 -12 -16 -10 -11 15 6 33 -7 44 -29 25 -15 -11 -16 -10 -10 11 6 23 -26 81 -44 81 -4 0 -11 -21 -15 -46z m136 -114 c0 -11 -4 -20 -10 -20 -5 0 -10 9 -10 20 0 11 5 20 10 20 6 0 10 -9 10 -20z"></path></g></g></svg>