<svg class="img-fluid" id="outputsvg" xmlns="http://www.w3.org/2000/svg" style="transform: none; transform-origin: 50% 50%; cursor: move;" width="49" height="29" viewBox="0 0 490 290"><g id="l6lPdKNUxKmTeLY5OU58gY6" fill="rgb(255,216,0)" style="transform: none;"><g><path id="p19AAsqyA5" d="M245 280 c-118 -11 -137 -17 -188 -63 -41 -37 -47 -48 -51 -92 -5 -62 17 -105 59 -117 35 -10 183 1 191 13 3 5 20 9 37 9 55 0 109 21 138 53 16 17 29 37 29 45 0 7 7 27 16 44 15 29 15 34 0 65 -25 53 -54 59 -231 43z"></path></g></g><g id="l7GvEx3wqgi1xo16FlUk4rV" fill="rgb(176,151,10)" style="transform: none;"><g><path id="paRPolmbm" d="M350 280 c0 -5 12 -10 26 -10 23 0 24 -1 10 -16 -21 -20 -20 -24 4 -24 11 0 20 7 20 15 0 22 27 18 43 -6 19 -27 11 -62 -13 -54 -25 8 -34 -10 -15 -28 18 -19 19 -24 3 -43 -33 -39 -42 -45 -84 -55 -24 -6 -44 -15 -44 -20 0 -13 29 -10 75 6 43 15 72 48 93 105 23 62 24 67 8 83 -9 8 -16 21 -16 27 0 6 -12 15 -26 20 -33 13 -84 13 -84 0z"></path><path id="p11GJk8e0M" d="M385 140 c-3 -6 1 -13 10 -16 19 -8 30 0 20 15 -8 14 -22 14 -30 1z"></path><path id="p15NdoRh9J" d="M347 104 c-11 -11 3 -24 18 -18 8 4 12 10 9 15 -6 11 -18 12 -27 3z"></path><path id="p18O1n5boy" d="M246 41 c-3 -5 -21 -9 -38 -9 -18 0 -42 -3 -53 -6 -11 -2 -26 -5 -32 -5 -7 -1 -13 -6 -13 -11 0 -7 21 -9 63 -5 63 7 117 24 117 37 0 11 -38 10 -44 -1z"></path></g></g><g id="l2w2WVz9Iz6SrDnlcg6Idzm" fill="rgb(43,43,41)" style="transform: none;"><g><path id="pgMl70xpo" d="M245 280 c-118 -11 -137 -17 -188 -63 -41 -37 -47 -48 -51 -92 -5 -62 17 -105 59 -117 35 -10 183 1 191 13 3 5 20 9 37 9 55 0 109 21 138 53 16 17 29 37 29 45 0 7 7 27 16 44 15 29 15 34 0 65 -25 53 -54 59 -231 43z m208 -42 c18 -24 19 -30 7 -60 -36 -92 -81 -128 -161 -128 -21 0 -40 -4 -43 -9 -7 -11 -137 -22 -175 -15 -21 5 -37 16 -47 35 -10 20 -11 29 -3 29 6 0 19 10 29 23 10 13 38 29 62 36 24 7 51 21 60 31 11 11 39 21 77 25 54 6 81 18 69 30 -2 3 -33 0 -68 -6 -45 -7 -66 -7 -68 0 -2 6 -8 11 -14 11 -6 0 -8 -7 -5 -15 7 -17 -46 -65 -72 -65 -10 0 -30 -9 -45 -21 l-26 -20 0 23 c0 14 13 37 30 53 29 28 30 28 30 7 0 -12 5 -22 11 -22 7 0 9 11 6 26 -3 19 1 28 17 35 30 13 159 27 240 25 62 -1 71 -4 89 -28z"></path><path id="poXgo2iBF" d="M387 253 c-12 -11 -8 -23 8 -23 8 0 15 7 15 15 0 16 -12 20 -23 8z"></path><path id="pt9tlDzg2" d="M130 215 c0 -8 5 -15 10 -15 6 0 10 7 10 15 0 8 -4 15 -10 15 -5 0 -10 -7 -10 -15z"></path><path id="pWOC1LL8O" d="M57 183 c-12 -11 -8 -23 8 -23 8 0 15 7 15 15 0 16 -12 20 -23 8z"></path></g></g></svg>