<svg class="img-fluid" id="outputsvg" xmlns="http://www.w3.org/2000/svg" style="transform: matrix(0.856831, 0, 0, 0.856831, 0, 0); transform-origin: 50% 50%; cursor: move; transition: transform 200ms ease-in-out 0s;" width="1608" height="152" viewBox="0 0 16080 1520"><g id="l3rTXC9rSAfXiDl01gAGMWz" fill="rgb(29,29,27)" style="transform: none;"><g><path id="p16iXvaRqh" d="M 2 773 l 3 -748 8025 0 8025 0 0 745 0 745 -8028 3 -8027 2 2 -747 z  m 5606 367 c 75 -12 104 -30 143 -84 26 -34 29 -48 29 -113 l 0 -73 -64 0 -63 0 -6 52 c -4 29 -15 64 -25 78 -34 46 -56 51 -212 48 -223 -5 -234 -16 -245 -253 -8 -162 6 -323 29 -357 33 -47 55 -53 196 -56 74 -2 151 0 169 5 44 11 72 49 78 107 l 6 46 63 0 64 0 0 -58 c 0 -48 -5 -65 -32 -107 -57 -85 -72 -90 -298 -90 -170 0 -202 3 -250 20 -69 26 -110 67 -138 139 -20 52 -22 76 -22 242 0 330 25 400 161 448 53 18 317 22 417 6 z  m 1131 -7 c 76 -23 116 -54 149 -116 l 27 -52 0 -250 c 0 -206 -3 -256 -16 -285 -24 -54 -62 -93 -115 -120 -47 -24 -56 -25 -244 -25 -169 0 -202 3 -247 19 -122 45 -142 104 -143 403 0 275 16 342 99 396 55 36 106 45 280 46 118 1 167 -3 210 -16 z  m 711 -119 c 0 -74 5 -144 10 -155 10 -17 23 -19 159 -19 112 0 162 4 201 17 75 24 84 43 89 180 l 3 113 69 0 69 0 0 -72 c 0 -144 -9 -177 -57 -225 -50 -51 -59 -97 -20 -112 59 -23 80 -83 75 -213 -5 -138 -26 -179 -106 -216 -57 -26 -59 -27 -339 -30 l -283 -4 0 436 0 436 65 0 65 0 0 -136 z  m 1371 -221 c 1 -197 4 -369 8 -383 7 -25 8 -25 139 -28 l 132 -3 0 -49 0 -50 -350 0 -350 0 0 50 0 49 138 3 137 3 3 383 2 382 70 0 70 0 1 -357 z  m 1239 307 l 0 -50 -234 0 -234 0 -6 -22 c -3 -13 -6 -78 -6 -145 0 -143 -7 -136 128 -133 48 1 140 2 205 1 l 117 -1 0 -45 0 -45 -222 -2 -223 -3 -3 -125 c -2 -109 0 -126 15 -137 12 -10 76 -13 240 -13 l 223 0 0 -50 0 -50 -305 0 -305 0 0 435 0 435 305 0 305 0 0 -50 z  m 895 -45 c 18 -49 34 -97 38 -105 3 -8 11 -35 17 -60 7 -25 16 -50 20 -55 5 -6 18 -46 30 -90 12 -44 25 -84 31 -89 5 -6 9 -17 9 -26 0 -9 9 -33 20 -55 11 -22 20 -47 20 -57 0 -9 6 -32 14 -50 8 -18 20 -53 27 -78 7 -25 16 -49 21 -55 4 -5 8 -20 8 -32 0 -23 -3 -24 -67 -21 l -68 3 -11 40 c -6 22 -13 47 -16 55 -4 8 -16 47 -29 85 -12 39 -33 98 -46 133 -12 34 -23 68 -23 75 0 7 -18 62 -41 123 -22 60 -46 129 -52 154 -12 44 -13 45 -52 45 l -40 0 -41 -120 c -23 -66 -47 -133 -53 -150 -7 -16 -15 -45 -18 -63 -3 -18 -10 -35 -14 -38 -5 -3 -9 -16 -9 -29 0 -13 -4 -26 -9 -29 -5 -4 -12 -24 -16 -46 -4 -22 -10 -42 -15 -45 -4 -3 -11 -20 -14 -39 -4 -20 -13 -48 -21 -63 -8 -15 -18 -43 -21 -60 l -6 -33 -68 0 -69 0 10 33 c 6 17 15 48 20 67 20 68 71 215 79 225 4 6 15 37 25 70 9 33 28 88 41 123 13 34 24 70 24 80 0 10 4 22 9 27 5 6 19 44 31 85 12 41 26 86 30 100 5 14 11 33 14 43 5 16 18 17 128 15 l 122 -3 31 -90 z  m 1215 45 l 0 -50 -221 0 c -128 0 -228 -4 -239 -10 -17 -9 -19 -23 -19 -140 1 -120 2 -131 21 -141 12 -7 81 -10 182 -9 88 1 180 2 204 1 l 42 -1 0 -44 0 -45 -215 -3 c -179 -2 -217 -6 -225 -18 -14 -23 -13 -233 2 -248 9 -9 76 -12 240 -12 l 228 0 0 -49 0 -49 -130 -3 c -71 -2 -209 -2 -305 -1 l -175 4 0 434 0 434 305 0 305 0 0 -50 z  m 550 -94 c 0 -113 3 -146 15 -156 10 -8 60 -11 177 -8 239 5 258 20 258 203 l 0 105 71 0 71 0 -3 -126 -4 -126 -47 -42 c -59 -52 -65 -91 -18 -119 60 -36 73 -69 74 -186 0 -129 -20 -185 -81 -225 -56 -37 -138 -46 -410 -46 l -243 0 0 435 0 435 70 0 70 0 0 -144 z  m 1620 123 c 153 -60 180 -125 180 -426 0 -207 -9 -257 -56 -319 -63 -85 -155 -104 -501 -104 l -223 0 0 436 0 436 283 -5 c 206 -3 291 -8 317 -18 z  m 1190 -29 l 0 -50 -224 0 c -197 0 -227 -2 -241 -17 -15 -14 -17 -34 -13 -137 2 -67 7 -127 11 -134 6 -9 63 -12 228 -12 l 219 0 0 -44 0 -45 -219 -3 c -121 -2 -223 -7 -227 -11 -13 -13 -17 -223 -4 -246 10 -20 18 -21 240 -21 l 230 0 0 -50 0 -50 -305 0 -304 0 -3 385 c -2 212 -1 407 0 435 l 4 50 304 0 304 0 0 -50 z "></path><path id="p4jkjiCFB" d="M 6365 1035 c -17 -7 -38 -22 -48 -32 -27 -31 -40 -166 -34 -356 5 -158 6 -170 30 -206 32 -47 50 -52 225 -58 122 -4 135 -2 171 18 64 36 66 44 66 313 0 271 -2 279 -76 317 -32 16 -58 19 -171 18 -87 0 -143 -5 -163 -14 z "></path><path id="pY1IqGB8B" d="M 7470 730 c -12 -7 -16 -39 -18 -159 -2 -98 0 -157 8 -171 11 -20 17 -21 178 -17 190 4 227 11 256 50 28 38 34 149 12 221 -26 81 -40 86 -248 86 -95 0 -180 -5 -188 -10 z "></path><path id="pzVjEUsWw" d="M 12732 728 c -8 -8 -12 -62 -12 -175 l 0 -163 26 -6 c 14 -4 101 -5 193 -2 226 7 241 17 241 172 0 105 -18 152 -65 172 -45 18 -365 20 -383 2 z "></path><path id="pBlIeF5Td" d="M 13898 1043 c -26 -7 -29 -44 -26 -363 l 3 -295 185 0 c 225 0 259 8 297 68 27 41 28 47 31 216 3 141 1 186 -13 237 -19 69 -57 114 -114 133 -32 11 -325 14 -363 4 z "></path></g></g><g id="l4MXMEYZxTO5cRjntAmy3e5" fill="rgb(254,254,254)" style="transform: none;"><g><path id="p1BKiWpu3J" d="M 5237 1183 c -1 0 -15 -3 -32 -6 -105 -18 -181 -91 -191 -186 -3 -25 -9 -59 -13 -76 -5 -16 -7 -122 -6 -235 2 -184 5 -211 24 -259 31 -78 54 -106 108 -132 81 -39 97 -41 308 -42 190 0 215 2 261 26 33 17 52 37 83 90 19 31 23 54 25 124 l 1 86 -87 2 c -49 1 -93 -2 -100 -6 -6 -4 -12 -26 -13 -49 -2 -48 -31 -91 -66 -100 -21 -5 -205 -5 -252 1 -22 3 -73 51 -75 71 -1 7 -4 38 -7 68 -7 59 -8 179 -2 300 5 130 36 153 210 155 65 0 121 -3 123 -7 3 -5 9 -6 14 -3 12 7 60 -53 62 -78 0 -12 1 -38 2 -57 l 1 -35 98 0 c 61 -1 97 3 98 9 6 76 5 164 -3 192 -19 71 -97 129 -188 141 -26 3 -380 9 -383 6 z "></path><path id="pxvqiCbSr" d="M 6348 1179 c -7 -4 -29 -9 -49 -12 -71 -9 -142 -75 -164 -152 -15 -54 -16 -67 -15 -310 0 -296 -1 -273 11 -280 5 -4 9 -17 9 -31 0 -53 82 -114 190 -140 27 -7 356 -8 406 -1 46 6 123 47 152 82 56 67 61 94 66 364 3 200 -8 291 -42 358 -21 40 -77 93 -104 97 -7 1 -19 5 -25 9 -7 5 -13 6 -13 3 0 -3 -12 -1 -27 5 -31 12 -375 19 -395 8 z  m 329 -182 c 33 -17 53 -45 61 -82 6 -27 6 -384 1 -410 -8 -34 -23 -52 -59 -73 -30 -17 -49 -19 -140 -16 -149 5 -167 10 -196 53 -18 29 -23 45 -18 69 4 18 2 38 -4 44 -8 10 -10 263 -2 263 1 0 3 24 5 53 6 95 45 117 208 117 88 0 119 -4 144 -18 z "></path><path id="pFhUc3cru" d="M 7292 1181 c -6 -5 -10 -882 -3 -926 1 -9 366 -11 586 -4 17 1 58 14 92 29 54 25 65 35 88 79 14 28 22 51 19 51 -4 0 -2 6 3 13 16 20 8 237 -10 277 -16 37 -41 63 -70 73 -14 5 -10 13 28 51 25 25 46 53 46 63 1 10 3 29 6 43 2 14 5 74 6 133 3 90 0 110 -12 116 -20 10 -178 7 -188 -3 -5 -4 -9 -51 -10 -104 -2 -138 -8 -156 -51 -174 -52 -20 -68 -21 -195 -22 -110 -1 -130 1 -138 15 -5 9 -7 72 -5 140 2 68 0 131 -3 140 -5 13 -22 16 -93 16 -48 0 -91 -3 -96 -6 z  m 545 -491 c 48 -31 65 -176 26 -228 -27 -37 -66 -44 -226 -46 -114 -1 -140 2 -147 14 -11 23 -5 261 7 268 6 4 80 7 165 7 114 -1 159 -4 175 -15 z "></path><path id="pwfCl1hkw" d="M 8665 1182 c -20 -3 -20 -10 -20 -385 l 0 -382 -120 -1 c -66 -1 -129 -2 -141 -3 -19 -1 -21 -6 -19 -83 l 1 -83 385 0 384 0 0 65 c 1 109 7 104 -138 105 -69 0 -129 4 -133 8 -5 5 -9 174 -9 377 -1 203 -4 372 -8 376 -7 7 -144 12 -182 6 z "></path><path id="pSCLb4ojf" d="M 9417 1175 c -3 -9 -1 -913 2 -925 1 -4 621 -6 662 -2 12 2 15 17 14 85 l -2 82 -229 0 c -126 0 -234 3 -240 7 -8 5 -11 42 -10 105 l 2 98 216 0 c 119 0 220 4 224 8 9 9 12 146 4 148 -3 1 -102 3 -220 4 -118 1 -218 3 -221 4 -4 1 -5 171 0 217 1 7 73 10 232 10 197 -1 232 1 238 14 9 22 7 138 -3 147 -12 12 -665 10 -669 -2 z "></path><path id="pduRR7t0m" d="M 10649 1174 c -5 -7 -11 -20 -13 -30 -3 -11 -9 -30 -14 -44 -5 -14 -10 -28 -10 -33 -2 -19 -35 -123 -43 -133 -5 -6 -11 -21 -13 -35 -3 -13 -5 -24 -6 -24 -1 0 -3 -7 -5 -15 -1 -8 -13 -40 -25 -70 -12 -30 -21 -55 -20 -55 5 0 -14 -62 -23 -72 -5 -7 -6 -13 -2 -13 4 0 3 -6 -3 -13 -10 -12 -79 -208 -87 -247 -2 -8 -10 -35 -19 -60 -30 -85 -30 -85 86 -85 82 0 102 3 105 15 3 8 7 22 10 30 3 8 8 24 10 34 2 11 7 24 12 30 7 9 20 49 25 76 1 3 4 10 8 15 3 6 9 27 13 48 4 20 11 40 16 43 5 3 9 16 9 29 0 13 5 27 10 30 6 3 10 15 10 25 0 10 5 31 12 47 6 15 12 31 13 36 2 4 3 8 4 10 1 1 21 58 44 126 23 68 47 123 52 122 6 0 10 -4 11 -8 1 -8 3 -14 23 -73 7 -19 14 -39 15 -45 2 -5 7 -21 13 -35 5 -14 20 -56 33 -95 13 -38 32 -97 44 -130 11 -33 20 -62 20 -65 -1 -9 54 -161 60 -167 3 -4 6 -16 6 -27 0 -12 6 -32 13 -45 11 -24 17 -25 107 -27 95 -1 129 8 111 30 -6 7 -13 27 -16 46 -3 19 -11 40 -17 47 -6 7 -8 13 -4 13 4 0 0 14 -9 30 -9 17 -13 30 -10 30 3 0 -2 17 -11 38 -8 20 -18 48 -20 62 -3 14 -14 43 -24 66 -11 22 -20 47 -20 55 0 8 -5 20 -12 27 -7 7 -8 12 -4 12 5 0 4 6 -2 13 -6 7 -13 25 -16 41 -7 41 -27 99 -39 114 -5 6 -6 12 -2 12 4 0 1 7 -6 17 -8 9 -13 17 -11 17 6 2 -10 60 -19 71 -4 6 -10 22 -12 35 -3 14 -14 48 -25 76 -12 29 -19 54 -16 56 2 3 -3 11 -12 18 -21 18 -291 21 -305 4 z "></path><path id="p14VAH1a3X" d="M 11529 1176 c -1 -6 -2 -217 -3 -468 -1 -309 2 -458 9 -459 5 -1 157 -2 337 -4 234 -2 328 1 330 9 2 6 3 45 3 86 l -2 75 -229 0 c -126 0 -234 4 -240 8 -13 7 -13 181 -1 194 4 3 101 7 217 8 115 0 212 3 215 7 10 10 13 122 4 139 -7 15 -33 16 -211 14 -112 -1 -210 2 -218 6 -12 6 -15 28 -14 109 0 63 4 104 11 108 7 4 113 7 237 7 124 -1 226 1 227 4 5 43 5 110 0 135 l -7 31 -332 0 c -227 1 -332 -2 -333 -9 z "></path><path id="p8Hswnifb" d="M 12547 1175 c -3 -9 -1 -875 2 -916 1 -13 33 -15 274 -13 297 2 382 12 440 50 76 50 105 172 82 344 -8 62 -32 101 -76 127 l -29 17 41 36 c 57 49 67 85 64 230 -2 67 -5 123 -7 126 -4 4 -125 7 -179 5 l -25 -1 1 -107 c 2 -121 -8 -154 -55 -178 -16 -8 -33 -15 -37 -14 -4 1 -10 0 -13 -1 -14 -6 -256 -5 -265 1 -6 4 -10 67 -9 153 0 80 -2 146 -5 147 -38 7 -201 2 -204 -6 z  m 551 -484 c 31 -17 45 -54 47 -131 3 -92 -17 -126 -80 -137 -29 -5 -288 -11 -300 -6 -11 3 -13 262 -3 279 10 15 308 11 336 -5 z "></path><path id="p10h6CTbWt" d="M 13712 1175 c -11 -18 -8 -924 3 -928 13 -4 509 1 555 6 140 15 215 61 257 157 24 54 25 71 24 305 -1 277 -1 257 -10 270 -5 5 -12 21 -16 35 -17 53 -94 125 -146 135 -10 2 -24 7 -30 10 -20 13 -105 17 -367 19 -167 0 -266 -3 -270 -9 z  m 498 -164 c 3 -2 16 -5 30 -7 13 -3 37 -17 53 -32 52 -48 60 -86 59 -272 -1 -182 -1 -178 -28 -222 -32 -51 -75 -61 -264 -62 l -155 -1 -2 270 c -1 295 1 322 24 327 18 3 275 2 283 -1 z "></path><path id="p1GmSLZA4O" d="M 14886 1180 c -7 -13 0 -919 6 -926 8 -7 644 -14 664 -7 15 6 12 152 -4 162 -6 3 -111 6 -232 6 -191 -1 -222 1 -229 14 -9 18 -5 180 5 190 3 3 99 6 212 7 114 1 214 2 223 3 13 1 16 13 13 71 -1 38 -5 73 -7 77 -3 5 -103 8 -222 8 -119 0 -219 3 -222 8 -11 18 -9 200 3 211 8 9 78 12 238 11 124 -1 227 1 227 4 1 3 2 41 3 84 2 71 0 77 -19 78 -62 4 -657 3 -659 -1 z "></path></g></g><g id="lPf9UiJVypNX2cfoWIX2sj" fill="rgb(0,0,0)" class="contour" style="transform: none;"><g><path id="pEcUGNYec" d="M16062 1512 c-10 -7 -12 -156 -10 -744 l3 -736 -75 -6 c-41 -3 -3652 -6 -8024 -6 -4372 1 -7951 -2 -7954 -4 -7 -8 15933 -5 16001 3 l58 6 -1 734 c0 538 3 737 11 747 13 16 10 18 -9 6z"></path><path id="ptyB1pkVD" d="M7368 1192 l-88 -3 0 -474 0 -475 273 0 c382 0 454 16 507 110 23 41 25 58 28 181 4 153 -7 196 -63 234 l-31 20 29 24 c49 40 60 81 65 239 l5 142 -112 0 -111 0 0 -97 c0 -195 -14 -207 -230 -208 l-145 0 -3 151 c-3 175 9 161 -124 156z m114 -164 l3 -153 130 -3 c241 -4 265 14 265 201 l0 107 101 0 102 0 -5 -132 c-6 -152 -18 -191 -72 -234 -38 -31 -45 -44 -22 -44 26 0 72 -48 85 -88 9 -26 12 -78 9 -158 -4 -147 -25 -195 -99 -232 -70 -35 -142 -42 -426 -42 l-263 0 0 465 0 465 95 0 94 0 3 -152z"></path><path id="p10e38i34p" d="M7480 559 l0 -151 168 4 c191 5 217 12 232 67 13 48 13 115 -2 163 -18 62 -40 68 -233 68 l-165 0 0 -151z m344 130 c51 -24 73 -141 38 -209 -24 -49 -73 -61 -237 -58 l-130 3 -3 124 c-1 69 0 131 2 138 7 17 293 19 330 2z"></path><path id="p1PwmXW8s" d="M5163 1171 c-78 -27 -118 -62 -144 -128 -21 -53 -23 -79 -27 -294 -6 -340 16 -411 146 -472 l67 -32 199 -3 c129 -3 214 0 245 8 107 27 161 109 161 248 l0 82 -104 0 -104 0 -4 -56 c-8 -89 -23 -98 -167 -102 -214 -6 -225 8 -225 293 1 219 9 251 67 278 40 19 227 24 271 7 38 -14 66 -66 66 -122 l0 -48 104 0 c122 0 114 -9 105 124 -7 104 -23 142 -75 182 -54 41 -133 54 -344 53 -151 0 -194 -3 -237 -18z m511 -12 c54 -19 111 -75 125 -124 6 -22 11 -75 11 -117 l0 -78 -95 0 -95 0 0 48 c0 56 -28 108 -66 122 -45 17 -251 12 -291 -7 -59 -28 -66 -59 -67 -288 0 -299 7 -309 235 -303 155 4 169 12 177 102 l4 56 94 0 94 0 0 -62 c0 -115 -34 -185 -110 -228 -44 -25 -49 -25 -260 -25 -213 0 -216 0 -273 27 -70 33 -111 77 -134 143 -15 43 -18 87 -18 300 1 237 2 253 24 308 26 66 65 101 144 129 46 16 77 18 257 14 135 -2 218 -8 244 -17z"></path><path id="p2j8rO8Xa" d="M6303 1176 c-109 -27 -160 -83 -183 -201 -15 -79 -9 -525 9 -578 17 -54 63 -101 123 -128 51 -23 63 -24 278 -24 214 0 228 1 276 23 63 29 96 62 126 127 22 48 23 60 23 310 0 228 -2 267 -19 313 -25 73 -66 116 -134 143 -51 21 -77 23 -252 26 -136 1 -211 -2 -247 -11z m481 -21 c65 -24 119 -79 142 -146 17 -47 19 -86 19 -304 0 -240 -1 -252 -23 -301 -29 -63 -62 -96 -127 -126 -47 -22 -62 -23 -265 -23 -205 0 -217 1 -268 24 -60 27 -106 74 -123 128 -17 54 -24 480 -9 558 23 118 74 174 183 201 81 20 407 13 471 -11z"></path><path id="pmBpa8CZo" d="M6380 1002 c-60 -30 -65 -51 -65 -287 0 -194 2 -213 20 -245 28 -47 67 -59 203 -59 87 -1 122 3 149 16 57 27 63 54 63 285 0 178 -2 208 -18 238 -30 56 -69 70 -202 70 -89 0 -123 -4 -150 -18z m289 -10 c63 -32 71 -62 71 -278 0 -114 -4 -204 -11 -223 -8 -22 -24 -38 -52 -53 -36 -18 -54 -20 -156 -16 -127 5 -153 13 -177 59 -34 67 -28 443 9 487 25 30 72 41 177 42 81 0 113 -4 139 -18z"></path><path id="p7cbX1GXz" d="M8640 805 l0 -385 -140 0 -140 0 0 -90 0 -90 390 0 390 0 0 90 0 90 -140 0 -140 0 0 385 0 385 -110 0 -110 0 0 -385z m210 -10 l0 -385 140 0 140 0 0 -80 0 -80 -380 0 -380 0 0 80 0 80 140 0 140 0 0 385 0 385 100 0 100 0 0 -385z"></path><path id="puF3p4IMh" d="M9410 715 l0 -475 345 0 345 0 0 90 0 90 -240 0 -240 0 0 100 0 100 225 0 225 0 0 85 0 85 -225 0 -225 0 0 110 0 110 240 0 240 0 0 90 0 90 -345 0 -345 0 0 -475z m680 385 l0 -80 -240 0 -240 0 0 -120 0 -120 225 0 225 0 0 -75 0 -75 -225 0 -225 0 0 -110 0 -110 240 0 240 0 0 -80 0 -80 -335 0 -335 0 0 465 0 465 335 0 335 0 0 -80z"></path><path id="p1CmkVtW2S" d="M10645 1178 c-52 -143 -305 -908 -305 -923 0 -11 71 191 159 450 l158 470 146 3 146 3 9 -33 c5 -18 75 -226 156 -462 80 -235 146 -430 146 -432 0 -3 -46 -3 -102 -2 l-101 3 -123 365 c-68 201 -127 364 -131 364 -9 -2 -17 -23 -152 -426 l-103 -308 -94 0 c-52 0 -94 -3 -94 -7 0 -5 45 -6 101 -3 l100 5 115 345 c63 190 117 352 121 360 4 10 10 2 19 -25 7 -22 62 -184 122 -360 l109 -320 111 -3 c90 -2 112 0 112 11 0 13 -18 67 -215 650 l-98 287 -154 0 c-114 0 -155 -3 -158 -12z"></path><path id="pWJvT6VMC" d="M11520 715 l0 -475 345 0 345 0 0 90 0 90 -237 2 -238 3 0 95 0 95 223 3 222 2 0 85 0 85 -222 2 -223 3 0 105 0 105 235 2 235 1 3 91 3 91 -346 0 -345 0 0 -475z m680 385 l0 -80 -237 -2 -238 -3 -3 -117 -3 -118 226 0 225 0 0 -75 0 -75 -225 0 -225 0 0 -110 0 -110 240 0 240 0 0 -80 0 -80 -335 0 -335 0 0 465 0 465 335 0 335 0 0 -80z"></path><path id="pTFY1z5I7" d="M12540 714 l0 -476 313 5 c195 2 325 8 348 16 61 19 103 53 129 106 22 45 25 62 25 175 0 149 -16 200 -73 229 l-35 18 36 22 c55 34 67 77 67 241 l0 140 -110 0 -110 0 0 -109 c0 -187 -10 -196 -220 -196 l-145 0 -3 153 -3 152 -109 0 -110 0 0 -476z m212 314 l3 -153 110 -3 c159 -5 212 4 247 38 28 28 28 30 28 149 l0 121 101 0 101 0 -4 -142 c-4 -165 -13 -190 -78 -227 l-42 -23 38 -22 c55 -31 80 -74 89 -152 15 -147 -17 -267 -84 -311 -62 -42 -95 -46 -408 -50 l-303 -5 0 466 0 466 100 0 99 0 3 -152z"></path><path id="p175RPYIqv" d="M12750 559 l0 -151 168 4 c92 3 175 8 185 13 31 13 47 60 47 135 0 76 -16 122 -49 140 -11 6 -91 10 -185 10 l-166 0 0 -151z m346 123 c34 -27 44 -56 44 -122 0 -65 -18 -113 -47 -125 -10 -4 -89 -10 -175 -13 l-158 -4 0 134 c0 74 3 138 7 141 3 4 74 7 157 7 128 0 154 -3 172 -18z"></path><path id="pszzVJXJ2" d="M13700 714 l0 -476 313 4 c294 4 315 6 370 27 74 29 111 61 145 125 27 51 27 53 30 284 2 147 -1 252 -8 287 -25 118 -112 193 -250 215 -36 5 -185 10 -332 10 l-268 0 0 -476z m590 456 c93 -15 166 -54 206 -113 48 -70 56 -126 52 -380 -3 -220 -3 -222 -31 -275 -16 -30 -45 -65 -69 -82 -78 -57 -114 -62 -440 -68 l-298 -4 0 466 0 466 258 0 c141 0 286 -5 322 -10z"></path><path id="p3Ri83tPV" d="M13900 715 l0 -307 178 4 c265 6 274 14 280 247 5 181 -2 238 -35 289 -40 61 -57 66 -250 70 l-173 4 0 -307z m332 285 c50 -14 94 -67 108 -132 8 -34 11 -107 8 -199 -6 -230 -18 -241 -275 -247 l-163 -4 0 296 0 296 143 0 c78 0 159 -5 179 -10z"></path><path id="pD61Q5UK8" d="M14880 715 l0 -474 335 -3 c184 -2 340 -1 345 0 6 2 10 43 10 93 l0 89 -237 2 -238 3 0 95 0 95 228 3 227 2 0 85 0 85 -227 2 -228 3 0 105 0 105 235 2 235 1 3 91 3 91 -346 0 -345 0 0 -475z m680 385 l0 -80 -240 0 -240 0 0 -120 0 -120 230 0 230 0 0 -75 0 -75 -230 0 -230 0 0 -110 0 -110 240 0 240 0 0 -80 0 -80 -335 0 -335 0 0 465 0 465 335 0 335 0 0 -80z"></path><path id="p18s2AbslI" d="M3843 33 c1919 -2 5055 -2 6970 0 1915 1 346 2 -3488 2 -3834 0 -5400 -1 -3482 -2z"></path><path id="p16l7FAox5" d="M14558 33 c144 -2 380 -2 525 0 144 1 26 2 -263 2 -289 0 -407 -1 -262 -2z"></path><path id="pQAzYHWF6" d="M15528 33 c34 -2 90 -2 125 0 34 2 6 3 -63 3 -69 0 -97 -1 -62 -3z"></path></g></g></svg>