<svg width="44" height="50" viewBox="0 0 44 50" fill="none" xmlns="http://www.w3.org/2000/svg">
<path d="M21.5063 50C20.8983 50.0008 20.296 49.8817 19.7341 49.6495C19.1721 49.4173 18.6614 49.0766 18.2313 48.6469L6.30008 36.7156C4.29635 34.7231 2.7078 32.3528 1.62639 29.7421C0.544989 27.1314 -0.00778381 24.3321 8.27961e-05 21.5063C-0.0076471 18.6814 0.545212 15.8831 1.62663 13.2734C2.70805 10.6638 4.29654 8.2946 6.30008 6.30319C8.29202 4.29927 10.6616 2.71036 13.2718 1.62843C15.882 0.546494 18.6808 -0.0069694 21.5063 7.43468e-05C24.3316 -0.00737867 27.1303 0.545593 29.7404 1.62699C32.3506 2.70838 34.7203 4.29671 36.7125 6.30007C38.7161 8.29148 40.3046 10.6606 41.386 13.2703C42.4674 15.88 43.0202 18.6783 43.0125 21.5032C43.0204 24.329 42.4676 27.1283 41.3862 29.739C40.3048 32.3497 38.7163 34.72 36.7125 36.7125L24.7813 48.6437C24.3514 49.0741 23.8409 49.4154 23.2789 49.6481C22.7169 49.8808 22.1146 50.0004 21.5063 50ZM21.5063 3.12507C19.0915 3.11856 16.6994 3.59109 14.4685 4.51532C12.2376 5.43955 10.2121 6.79712 8.50944 8.50944C5.06803 11.9594 3.13538 16.6334 3.13538 21.5063C3.13538 26.3792 5.06803 31.0532 8.50944 34.5031L20.4407 46.4344C20.7244 46.7149 21.1073 46.8722 21.5063 46.8722C21.9053 46.8722 22.2882 46.7149 22.5719 46.4344L34.5032 34.5031C37.9446 31.0532 39.8772 26.3792 39.8772 21.5063C39.8772 16.6334 37.9446 11.9594 34.5032 8.50944C32.8005 6.79712 30.775 5.43955 28.5441 4.51532C26.3132 3.59109 23.9211 3.11856 21.5063 3.12507ZM21.5063 31.7469C18.7913 31.7436 16.1885 30.6636 14.2687 28.7438C12.349 26.8241 11.269 24.2213 11.2657 21.5063C11.2649 18.7886 12.343 16.1818 14.2632 14.2586C16.1835 12.3355 18.7886 11.2534 21.5063 11.2501C24.224 11.2534 26.8292 12.3355 28.7494 14.2586C30.6696 16.1818 31.7477 18.7886 31.7469 21.5063C31.7436 24.2213 30.6636 26.8241 28.7439 28.7438C26.8241 30.6636 24.2213 31.7436 21.5063 31.7469ZM21.5063 14.3751C19.6193 14.3775 17.8104 15.1284 16.4764 16.463C15.1425 17.7976 14.3923 19.6068 14.3907 21.4938C14.3899 23.3824 15.1389 25.194 16.4731 26.5306C17.8074 27.8672 19.6177 28.6194 21.5063 28.6219C23.3927 28.6194 25.2012 27.8689 26.5351 26.535C27.869 25.2012 28.6194 23.3927 28.6219 21.5063C28.6236 19.6172 27.8749 17.8047 26.5406 16.4674C25.2062 15.1302 23.3954 14.3775 21.5063 14.3751Z" fill="white"/>
</svg>
