<svg width="1440" height="903" viewBox="0 0 1440 903" fill="none" xmlns="http://www.w3.org/2000/svg">
<g clip-path="url(#clip0_1_2)">
<path d="M783.939 920.322C783.683 919.624 783.991 918.673 784.651 918.155C787.016 916.331 790.771 907.198 790.378 904.588C789.875 901.997 787.436 900.505 784.75 901.195C782.503 901.805 778.9 908.625 778.128 913.635C777.483 918.075 777.483 918.075 773.463 921.791C771.219 923.841 768.508 926.275 767.516 927.251L765.658 929.032L759.921 925.66L754.225 922.23L742.965 924.39C733.322 926.154 730.47 927.073 723.21 930.537L714.7 934.677L715.365 929.289C715.845 925.078 715.61 923.432 714.376 921.72C713.454 920.497 712.588 919.066 712.537 918.479C712.445 917.95 715.231 912.521 718.677 906.575C729.957 887.173 733.813 879.214 733.369 876.016C733.319 875.429 731.685 874.138 729.641 873.022C726.301 871.198 725.946 871.164 724.652 872.295C723.894 873.079 721.974 875.865 720.451 878.628C712.062 893.378 709.683 897.191 706.377 900.578C704.572 902.548 702.577 904.254 702.07 904.297C701.084 904.477 690.109 884.426 686.649 876.067C683.15 867.367 683.297 865.85 688.736 854.521C692.107 847.495 693.529 843.559 694.045 840.086C694.622 835.608 694.941 834.904 699.871 828.09C708.86 815.665 710.148 811.256 705.445 808.688C702.378 807.014 701.049 807.406 698.824 810.744C697.664 812.347 696.913 814.174 697.073 814.741C697.26 815.402 695.337 818.586 691.94 823.281C687.218 829.809 686.345 831.409 685.013 836.273C683.415 842.03 678.389 850.949 676.305 851.727C675.482 852.077 674.34 850.894 671.304 846.68C667.766 841.713 667.149 839.938 667.371 835.427C667.462 834.118 666.7 833.463 662.951 831.416C658.971 829.163 658.346 828.582 657.61 826.183C656.74 823.311 656.857 822.098 659.245 810.78C661.225 801.078 661.178 797.857 659.01 790.603C657.938 787.222 657.079 782.759 656.956 780.695C656.765 778.593 656.627 776.681 656.547 776.397C656.398 776.077 656.018 773.712 655.625 771.101C654.627 764.726 653.781 762.347 650.893 758.453C647.842 754.391 645.43 752.994 642.866 753.91C639.3 755.159 639.223 754.477 644.32 769.642C645.327 772.588 645.86 776.713 645.732 779.519C645.506 782.59 646.149 786.696 647.556 791.059C648.845 794.798 649.568 799.186 649.338 800.818C648.949 803.721 647.107 807.188 646.289 806.742C646.084 806.63 642.342 801.551 637.977 795.494C623.095 774.667 616.71 767.985 607.64 763.832C602.934 761.662 601.927 760.952 600.886 759.106C598.195 754.282 598.016 752.427 599.68 747.104C601.917 739.939 602.072 737.227 600.529 730.554C599.397 725.942 598.317 723.755 594.75 719.091C591.658 715.086 589.955 711.92 588.925 708.482C588.218 705.779 587.262 703.42 586.785 703.16C585.422 702.416 580.707 703.676 579.713 705.05C577.766 707.741 578.714 711.294 583.759 719.959C590.441 731.356 592.273 737.629 589.871 740.95C589.208 741.866 588.575 742.479 588.438 742.404C588.302 742.33 586.633 740.3 584.815 737.95C576.309 727.234 572.218 723.164 566.97 720.298C562.336 717.768 558.426 717.39 557.058 719.279C555.691 721.169 556.99 723.316 562.512 728.168C569.448 734.352 585.834 757.437 585.188 760.04C584.585 762.187 579.218 762.771 573.468 761.389C564.248 759.15 560.703 759.451 560.012 762.509C559.643 764.464 562.746 766.877 568.355 768.981C574.346 771.214 577.448 771.789 583.085 771.752C585.78 771.706 588.923 772.224 590.123 772.799C591.214 773.395 593.792 774.563 595.756 775.396C600.366 777.434 603.168 780.002 608.727 787.43C611.277 790.74 615.487 795.435 618.098 797.739C624.503 803.473 629.662 809.485 628.632 810.121C628.205 810.447 624.648 810.502 620.791 810.313L613.747 810.061L606.988 806.131C601.55 803.002 599.381 802.057 595.992 801.485C592.357 800.858 591.59 800.999 590.35 802.318C588.104 804.766 589.121 806.12 595.678 809.541C608.657 816.308 613.202 817.911 621.624 818.755C630.934 819.685 633.539 820.948 642.488 828.949C647.438 833.409 648.549 834.895 651.709 841.173C653.693 845.132 655.622 849.301 656.052 850.414C656.966 852.83 655.48 854.096 653.163 852.831C652.277 852.347 649.738 851.52 647.566 850.973C645.395 850.426 639.241 848.025 633.99 845.557C625.711 841.756 623.486 841.02 618.142 840.259C611.951 839.354 611.841 839.374 610.309 841.493C609.107 843.153 609.06 844.007 609.912 845.59C610.98 847.531 611.116 847.605 617.624 848.203C623.845 848.804 624.855 849.116 632.464 852.792C636.951 855.002 645.867 859.63 652.205 863.091C665.496 870.348 666.951 871.622 672.156 880.854C673.874 883.869 676.706 887.971 678.39 889.849C681.784 893.7 682.832 896.588 683.792 904.461C684.179 907.868 685.441 911.512 687.333 914.942C690.795 921.065 690.502 921.864 684.301 924.39C680.639 925.904 680.129 926.345 679.817 928.091C679.333 930.863 681.375 932.377 688.269 934.544C693.075 936.05 694.343 936.662 696.614 938.781C698.096 940.149 699.4 941.5 699.507 941.878C699.614 942.256 698.442 943.613 696.941 945.03C695.482 946.39 692.848 949.505 691.245 951.984L688.191 956.468L682.724 957.716C677.915 958.845 664.466 965.081 663.265 966.741C662.975 967.142 661.032 967.199 658.872 966.899C656.713 966.598 651.816 966.401 647.972 966.458C637.764 966.636 636.014 966.559 635.978 965.821C635.939 961.406 640.399 949.064 642.084 948.706C642.632 948.606 643.117 947.673 643.261 946.553C643.296 945.454 644.265 941.749 645.272 938.385C646.321 934.964 647.047 930.807 647.004 929.026C646.743 925.05 642.37 916.112 638.742 912.454C636.133 909.751 634.838 909.044 628.504 907.023C627.112 906.582 627.591 906.445 630.231 906.608C632.802 906.734 636.843 907.982 643.856 910.773C656.464 915.82 661.848 918.759 668.952 924.316C674.124 928.338 674.805 928.71 676.34 928.429C678.422 928.049 679.326 925.747 678.066 923.94C677.592 923.282 674.287 920.359 670.694 917.439C665.238 913.022 662.595 911.419 654.114 907.108C648.537 904.303 642.727 901.689 641.183 901.326C636.253 899.992 630.65 897.092 628.776 894.951C625.654 891.249 622.502 890.087 618.009 890.909C612.859 891.851 611.355 893.666 612.573 897.766C613.334 900.657 613.565 900.863 618.066 902.921C620.643 904.089 622.252 904.888 621.515 904.725C619.343 904.178 616.744 906.194 612.933 911.462C609.246 916.558 604.294 920.643 591.486 929.147C588.23 931.282 587.348 932.239 587.147 933.567C586.932 935.047 584.32 943.126 583.782 943.871C583.657 944.042 581.639 943.021 579.363 941.698C574.198 938.718 571.574 938.403 567.443 940.302C565.755 941.057 564.124 941.604 563.987 941.53C563.783 941.418 562.89 939.892 561.985 938.12C557.717 929.958 554.774 928.112 548.336 929.389C541.459 930.747 536.291 936.312 534.846 943.83C534.391 946.298 533.815 948.54 533.567 948.883C532.987 949.685 530.779 948.4 529.151 946.313C527.945 944.695 528.001 944.486 530.522 941.789C533.127 938.978 533.127 938.978 531.912 934.48C531.19 931.929 530.245 927.979 529.755 925.634L528.907 921.417L524.255 919.436C516.712 916.196 514.764 914.813 512.952 911.667C511.235 908.652 511.272 907.155 513.044 908.123C514.476 908.904 518.74 907.478 521.437 905.196C522.757 904.16 525.122 902.336 526.662 901.26C528.601 899.762 529.524 898.749 529.517 897.707C529.682 895.64 525.949 891.205 520.478 886.94C514.04 881.907 509.868 879.789 503.762 878.372C495.908 876.48 479.975 871.694 477.862 870.541C476.84 869.982 475.66 868.459 475.176 867.157L474.22 864.798L478.779 860.337C482.277 856.816 483.775 855.796 485.514 855.627C486.772 855.596 488.57 854.82 489.588 853.938C491.157 852.558 491.216 851.951 490.506 849.647C490.078 848.135 488.008 844.688 486.084 841.96C480.77 834.586 480.868 834.319 488.496 835.209C492.077 835.647 496.002 835.873 497.193 835.804C501.286 835.403 506.062 833.139 507.719 830.848C509.914 827.813 508.642 825.761 501.927 821.375C499.067 819.414 495.38 816.363 493.832 814.559C491.701 812.117 479.574 796.549 479.209 795.871C479.182 795.776 479.324 795.055 479.59 794.162C479.953 793.002 480.338 792.733 480.937 793.22C483.32 794.92 492.307 799.188 493.524 799.214C495.316 799.234 498.092 795.398 498.33 792.572C498.868 787.754 498.035 779.311 496.89 776.689C494.881 772.237 491.745 768.687 487.928 766.603C484.52 764.743 484.357 764.574 485.393 763.142C485.973 762.341 486.841 759.3 487.449 756.357C488.316 751.479 488.553 750.889 490.572 749.675C492.701 748.441 492.896 747.909 493.378 743.299C493.643 740.568 494.07 738.006 494.277 737.719C494.526 737.376 497.891 737.456 501.801 737.834C507.447 738.44 509.363 738.288 511.409 737.169C514.622 735.488 514.627 734.692 511.696 729.018C510.264 726.399 509.717 724.263 510.173 723.633C510.587 723.061 513.719 721.097 517.083 719.339C528.657 713.197 529.355 708.946 519.961 702.219C516.843 699.957 515.962 698.677 516.764 697.438C516.93 697.209 517.531 697.297 518.076 697.595C520.871 699.121 527.905 698.728 529.435 697.008C531.474 694.846 531.604 693.878 530.937 689.281C529.991 683.492 530.131 680.933 531.896 676.784C534.149 671.304 538.989 663.563 540.345 663.265C541.086 663.03 543.856 664.064 547.619 665.959C550.974 667.631 557.101 669.938 561.252 671.166C570.181 673.805 580.943 678.643 583.006 681.047C583.822 681.892 584.731 685.104 585.094 688.018C586.212 696.856 586.749 698.347 589.748 699.985C593.087 701.808 594.633 701.774 597.286 699.947C599.169 698.659 599.503 697.803 600.331 692.584C600.859 689.357 601.496 686.111 601.748 685.369C602.067 684.665 602.09 683.319 601.959 682.449C601.679 681.258 601.901 680.82 602.887 680.64C604.093 680.419 611.184 683.892 615.759 687.029C619.437 689.437 623.868 689.62 626.77 687.449C628.86 685.875 629.476 685.812 630.427 686.731C633.554 689.636 637.792 696.264 640.92 703.243C646.272 715.032 648.976 717.866 654.233 717.302C656.848 716.973 657.535 716.549 660.749 712.632C664.031 708.753 664.457 708.427 665.559 709.268C666.268 709.735 668.147 711.08 669.794 712.22C672.136 713.977 673.392 714.344 676.784 714.518L680.886 714.761L683.872 718.389C687.794 723.086 691.584 725.076 697.737 725.639C702.823 726.1 705.974 725.424 711.41 722.641C715.899 720.379 716.756 721.167 716.088 726.953C715.579 731.467 716.213 732.693 719.315 733.268C721.187 733.571 721.86 733.299 723.019 731.696C724.635 729.463 726.238 722.91 725.68 720.528C725.507 719.715 724.327 718.192 722.952 717.201L720.584 715.349L722.697 712.429C723.898 710.768 725.439 707.456 726.139 705.043C726.839 702.629 727.646 700.594 727.975 700.533C728.304 700.473 729.31 703.419 730.243 707.124C731.895 713.777 731.922 713.871 735.181 715.411L738.509 716.989L738.18 721.123C737.695 726.13 739.784 730.865 743.26 732.763C748.33 735.611 749.595 738.858 747.264 743.656C746.625 745.065 746.233 746.527 746.381 746.848C746.597 747.206 746.373 748.042 745.876 748.729C743.831 751.686 744.62 752.437 755.525 758.391L765.638 763.993L769.817 763.079C772.05 762.621 774.295 762.409 774.84 762.707C776.204 763.451 781.094 770.754 782.806 774.565C783.601 776.357 785.025 780.17 785.964 783.079C787.463 787.971 787.487 788.464 785.665 790.983C784.629 792.415 783.627 794.983 783.397 796.614C783.209 798.189 782.788 801.793 782.387 804.45C782.013 807.201 782.169 810.402 782.695 811.648C783.92 814.553 786.892 816.096 789.415 815.237L791.307 814.593L792.957 817.57C797.038 825.071 797.004 830.244 792.709 842.357C790.951 847.548 789.47 852.091 789.494 852.583C789.56 853.019 789.179 854.728 788.662 856.362C787.991 858.472 788.051 859.703 789.056 860.811C790.835 862.821 795.202 864.407 798.268 864.243C800.539 864.126 800.966 863.8 803.413 860.023C805.886 856.342 806.244 855.978 808.172 856.072C809.307 856.213 811.638 855.488 813.272 854.543C820.961 850.355 822.378 851.288 820.912 859.753C820.016 864.935 820.073 866.564 821.161 867.558L822.548 868.794L803.493 895.134C787.213 917.637 784.342 921.341 783.939 920.322ZM799.767 891.741C801.5 888.294 803.011 885.285 803.177 885.056C803.343 884.827 802.551 884.475 801.417 884.335C799.148 884.055 795.165 886.273 791.557 889.815C789.409 891.997 787.411 898.175 788.706 898.882C789.796 899.477 794.379 899.583 795.217 899.082C796.508 898.349 796.342 898.578 799.767 891.741ZM744.345 850.856C746.224 848.128 745.794 847.014 742.449 845.987C739.377 845.108 735.803 847.55 733.076 852.372C730.958 856.088 727.886 863.357 727.405 865.73C727.166 866.718 730.132 869.057 731.338 868.836C731.708 868.719 736.223 862.477 744.345 850.856ZM758.207 829.988C755.709 825.03 751.444 826.456 746.018 833.957C742.787 838.423 742.731 838.632 744.118 839.869C744.948 840.562 746.257 841.117 747.092 841.014C749.05 840.805 753.932 837.08 758.519 832.316C758.768 831.972 758.693 830.893 758.207 829.988ZM773.927 792.882C772.383 790.68 771.097 790.617 767.965 792.581C764.53 794.7 762.998 796.819 762.704 799.853C762.412 802.49 762.644 802.696 765.704 803.329C768.068 803.741 769.347 802.762 772.69 797.878C774.776 794.863 774.944 794.236 773.927 792.882ZM715.793 791.493C715.67 789.429 715.83 785.922 716.202 783.569C716.464 781.236 716.575 778.98 716.331 778.527C715.575 777.076 712.206 775.556 711.176 776.191C709.911 777.019 706.087 788.35 705.998 791.497C706.002 792.937 706.412 794.998 706.979 796.186C707.869 798.11 708.278 798.333 710.574 798.708C712.76 799.103 713.432 798.831 714.634 797.17C715.545 795.911 715.955 793.898 715.793 791.493ZM607.539 895.656C606.625 893.24 604.075 889.93 602.439 889.037C601.621 888.591 597.672 887.872 593.762 887.494C588.786 887.014 583.868 885.926 577.998 883.92C571.077 881.658 568.441 881.097 564.267 881.215C561.462 881.281 558.85 881.212 558.577 881.063C557.418 880.431 523.714 873.53 521.566 873.476C520.239 873.47 517.42 873.688 515.27 874.031C512.024 874.575 511.268 874.962 511.192 876.119C511.089 877.181 511.878 877.931 514.4 879.308C517.807 881.168 519.801 881.698 530.407 883.335C533.837 883.85 538.317 885.018 540.459 885.868C542.56 886.776 547.75 888.012 552.069 888.613C557.304 889.394 560.909 890.325 562.954 891.441C564.658 892.371 568.521 893.602 571.555 894.14C574.547 894.736 581.77 896.842 587.488 898.926C597.615 902.539 598.039 902.61 601.711 901.74C605.973 900.712 608.412 898.129 607.539 895.656ZM672.481 766.726C672.677 763.957 670.988 762.875 667.345 763.442C662.909 764.055 661.188 767.748 663.572 771.287C664.384 772.529 665.081 772.75 667.216 772.558C670.255 772.3 672.185 770.158 672.481 766.726ZM604.388 838.899C602.627 836.34 588.769 830.131 582.414 829.058L577.085 828.145L566.066 820.771C556.287 814.313 548.49 809.976 543.439 808.416C540.135 807.331 522.813 803.544 517.019 802.617C512.249 801.85 510.484 801.924 508.562 802.872C506.297 804.032 506.173 804.203 506.873 805.864C507.788 808.28 513.35 811.237 519.524 812.691C522.747 813.493 528.614 815.897 537.396 820.054C544.638 823.449 551.675 826.732 553.053 827.325C554.473 827.86 558.71 830.413 562.415 832.915L569.115 837.453L577.449 839.207C582.094 840.146 588.485 841.958 591.705 843.157C598.597 845.722 601.663 845.559 603.941 842.409C605.018 840.921 605.106 840.01 604.388 838.899ZM647.607 744.597C648.006 740.102 646.301 737.334 643.06 737.082C638.534 736.768 636.348 740.446 637.857 745.983C638.71 749.404 641.555 751.517 644.255 750.675C646.586 749.951 647.154 748.903 647.607 744.597ZM561.177 790.863C559.767 786.898 556.613 783.897 554.202 784.338C552.929 784.522 546.505 781.573 531.615 774.162C522.097 769.444 519.863 768.065 513.671 763.086C504.445 755.732 501.373 754.853 500.481 759.239C500.171 760.588 501.212 762.434 505.325 767.395C510.332 773.485 510.794 773.897 518.277 778.142C522.488 780.601 530.065 784.978 534.943 787.961C548.542 796.105 550.628 797.164 553.433 797.098C558.631 797.141 562.222 794.149 561.177 790.863ZM533.339 790.44C532.885 788.834 527.866 786.573 523.191 785.937C518.913 785.279 518.709 785.168 516.823 782.78C514.558 779.866 513.056 779.445 510.951 781.171C507.402 784.106 509.007 791.612 514.06 795.01C517.45 797.421 523.396 798.271 528.001 797.031C530.468 796.381 531.279 795.785 532.332 793.804C533.039 792.433 533.473 790.913 533.339 790.44ZM554.345 703.58C552.462 700.794 552.008 699.188 552.287 696.305C552.478 694.333 552.1 691.57 551.465 690.345C549.993 687.384 546.385 682.778 544.927 681.902C543.223 680.972 540.496 681.719 539.17 683.552C538.176 684.926 538.348 685.739 540.421 688.788C542.331 691.668 542.759 693.179 542.515 696.801C542.334 699.418 541.675 701.774 541 702.444C539.156 704.073 541.606 708.046 545.968 710.428C550.262 712.772 553.712 712.34 555.552 709.271C556.632 707.384 556.513 706.76 554.345 703.58Z" fill="#8CA54F" fill-opacity="0.4"/>
<path d="M1721.92 271.134C1721.05 270.431 1720.51 268.879 1720.69 267.585C1721.37 262.992 1716.9 247.35 1714.2 244.212C1711.41 241.2 1707.71 241.422 1705.7 244.79C1704.06 247.651 1706.62 260.058 1710.32 267.467C1713.64 273.999 1713.64 273.999 1713.03 282.631C1712.67 287.416 1712.2 293.14 1712.1 295.349L1711.87 299.424L1703.29 300.129L1694.7 300.719L1685.65 313.853C1677.84 324.987 1675.88 328.811 1671.89 340.054L1667.29 353.338L1663.14 345.519C1659.87 339.445 1658.17 337.455 1655.45 336.286C1653.47 335.488 1651.35 334.36 1650.78 333.62C1650.22 332.995 1648.1 323.194 1646.17 312.098C1639.9 275.863 1636.57 261.699 1633.3 257.822C1632.73 257.083 1629.99 256.84 1627.01 257.205C1622.13 257.802 1621.76 258.079 1621.5 260.77C1621.46 262.51 1622.07 267.986 1623.04 273.07C1627.99 300.448 1629.07 307.717 1628.86 315.259C1628.86 319.538 1628.43 323.637 1627.98 324.155C1627.18 325.294 1598.67 308.435 1587.86 300.391C1576.72 291.927 1575.52 289.762 1570.74 269.649C1567.77 257.176 1565.65 250.613 1563.07 245.495C1559.65 238.975 1559.33 237.742 1558.07 224.135C1555.77 199.324 1553.11 192.25 1546.24 193.09C1541.77 193.638 1540.82 195.373 1541.63 201.866C1541.92 205.067 1542.82 208.196 1543.48 208.809C1544.25 209.524 1545.21 215.535 1546.08 224.911C1547.28 237.946 1547.86 240.882 1550.89 248.606C1554.45 257.767 1557.49 274.278 1556.15 277.217C1555.66 278.433 1553.5 277.889 1546.79 275.01C1538.93 271.578 1536.75 269.764 1532.96 263.522C1531.88 261.688 1530.56 261.503 1525.09 262.173C1519.21 262.777 1518.09 262.568 1515.24 260.026C1511.84 256.974 1510.87 255.242 1503.13 237.919C1496.43 223.129 1493.52 218.86 1484.96 211.12C1480.91 207.569 1476.11 202.376 1474.15 199.724C1472.1 197.085 1470.26 194.65 1469.93 194.344C1469.5 194.049 1467.03 191.23 1464.32 188.092C1457.68 180.464 1454.74 178.049 1448.47 175.464C1441.89 172.801 1438.3 173.125 1436.62 176.685C1434.26 181.599 1433.57 180.758 1452.02 196.422C1455.62 199.45 1459.81 204.488 1462.18 208.36C1464.69 212.678 1468.97 217.589 1474.22 222.15C1478.8 225.983 1483.4 231.201 1484.63 233.594C1486.83 237.834 1488.12 244.152 1486.93 244.298C1486.63 244.335 1478.47 240.94 1468.84 236.801C1435.83 222.458 1423.67 219.321 1411.15 222.012C1404.64 223.387 1403.03 223.354 1400.37 221.829C1393.46 217.818 1391.64 215.498 1388.53 206.859C1384.33 195.231 1382.07 191.461 1374.64 183.93C1369.43 178.785 1366.44 176.84 1358.82 173.841C1352.25 171.293 1347.77 168.603 1343.71 164.937C1340.62 161.963 1337.59 159.674 1336.9 159.759C1334.91 160.003 1331.44 165.978 1331.69 168.722C1332.19 174.096 1336.27 177.991 1348.89 185.002C1365.53 194.181 1372.89 200.911 1373.5 207.543C1373.67 209.372 1373.6 210.769 1373.4 210.793C1373.2 210.817 1369.77 209.619 1365.92 208.126C1348.11 201.519 1340.5 199.79 1332.85 200.728C1326.09 201.556 1321.94 204.608 1322.29 208.381C1322.64 212.154 1325.82 213.847 1335.51 215.319C1347.76 217.288 1384.24 233.287 1385.92 237.36C1387.24 240.782 1382.54 246.447 1375.71 249.827C1364.75 255.217 1361.56 258.845 1363.61 263.567C1364.99 266.52 1370.16 266.928 1377.49 264.642C1385.3 262.181 1388.83 260.13 1394.29 254.952C1396.87 252.439 1400.39 250.273 1402.07 249.951C1403.66 249.757 1407.21 248.975 1409.86 248.303C1416.16 246.838 1421.17 247.727 1433.19 252.615C1438.62 254.726 1446.89 257.182 1451.48 257.891C1462.82 259.741 1473.18 263.096 1472.75 264.884C1472.62 265.709 1469.21 269.018 1465.28 272.274L1458.2 278.345L1448.13 279.232C1440.05 279.99 1437.1 280.699 1433.29 283.015C1429.2 285.483 1428.58 286.368 1428.54 289.263C1428.53 294.584 1430.73 295.472 1440.15 294.086C1458.8 291.338 1464.65 289.35 1473.6 282.819C1483.49 275.594 1487.15 274.915 1502.98 277.486C1511.76 278.954 1514.16 279.932 1522.82 285.462C1528.28 288.957 1533.86 292.783 1535.27 293.883C1538.31 296.286 1537.99 299.332 1534.6 299.746C1533.31 299.904 1530.1 301.106 1527.5 302.35C1524.9 303.594 1516.78 305.977 1509.47 307.45C1498.03 309.892 1495.21 310.931 1489.33 314.773C1482.5 319.195 1482.41 319.321 1482.81 323.552C1483.11 326.868 1483.83 328.052 1486.06 329.397C1488.83 331.024 1489.03 331 1495.89 325.88C1502.48 321.026 1503.75 320.525 1514.42 318.523C1520.75 317.4 1533.55 315.486 1542.8 314.353C1562.19 311.978 1564.74 312.36 1578.01 319.984C1582.37 322.458 1588.77 325.374 1592.08 326.356C1598.81 328.423 1602.4 331.336 1610.33 341.003C1613.74 345.211 1618.21 348.942 1623.1 351.812C1631.91 356.861 1632.34 358.197 1628.55 367.218C1626.33 372.578 1626.23 373.632 1627.48 376.254C1629.47 380.404 1632.8 380.574 1641.44 377.203C1647.46 374.847 1649.24 374.513 1653.33 375.284C1655.99 375.767 1658.46 376.39 1658.9 376.798C1659.34 377.207 1659.41 380.09 1659.21 383.352C1659 386.5 1659.2 393.066 1659.85 397.844L1660.86 406.624L1656.65 413.269C1652.97 419.154 1645.42 439.737 1645.73 443.053C1645.81 443.853 1643.97 445.698 1641.6 447.26C1639.23 448.822 1634.28 453.012 1630.59 456.587C1620.82 466.11 1619.04 467.599 1618.35 466.643C1614.39 460.769 1607.75 440.189 1609.08 438.176C1609.52 437.544 1609.16 435.853 1608.31 434.223C1607.36 432.72 1605.01 426.879 1603 421.459C1600.98 415.925 1597.99 409.7 1596.37 407.355C1592.58 402.269 1580.37 394.281 1573.59 392.684C1568.64 391.439 1566.75 391.671 1558.79 394.728C1557.04 395.404 1557.39 394.784 1560.1 392.601C1562.72 390.431 1567.76 388.425 1577.07 385.782C1593.83 381.069 1601.69 380.107 1613.54 381.083C1622.15 381.763 1623.15 381.641 1624.39 379.869C1626.08 377.466 1624.91 373.561 1622.08 372.289C1621.03 371.839 1615.22 370.933 1609.12 370.292C1599.88 369.342 1595.88 369.601 1583.8 371.544C1575.87 372.861 1567.89 374.648 1566.07 375.566C1560.08 378.265 1552.05 379.48 1548.32 378.318C1541.99 376.202 1537.89 377.514 1534.24 382.702C1530.07 388.648 1530.22 392.446 1535.05 396.826C1538.36 400.005 1538.77 400.071 1544.98 398.732C1548.53 397.95 1550.81 397.556 1549.94 398.009C1547.34 399.252 1546.61 404.315 1547.58 414.834C1548.52 425.01 1547.34 434.985 1542.43 458.02C1541.16 463.841 1541.15 465.924 1542.14 467.885C1543.24 470.062 1547.88 483.254 1548.02 484.74C1548.05 485.083 1545.18 485.551 1541.79 485.851C1534.11 486.56 1531.28 488.526 1528.94 494.825C1527.97 497.372 1526.87 499.589 1526.67 499.613C1526.37 499.65 1524.15 498.419 1521.69 496.87C1510.28 489.826 1505.77 490.031 1500.64 497.598C1495.15 505.671 1495.07 517.823 1500.35 529.203C1502.1 532.92 1503.54 536.445 1503.6 537.131C1503.75 538.731 1500.46 539.019 1497.01 537.706C1494.4 536.638 1494.27 536.308 1494.33 530.403C1494.36 524.27 1494.36 524.27 1489.18 519.354C1486.21 516.596 1481.78 512.167 1479.21 509.474L1474.64 504.599L1468.35 506.179C1458.12 508.704 1455 508.624 1450.44 506.061C1446.09 503.587 1444.79 501.549 1447.38 501.232C1449.46 500.976 1452.35 495.188 1452.94 489.68C1453.31 487.092 1453.99 482.498 1454.53 479.657C1455.08 475.888 1455.08 473.692 1454.15 472.303C1452.47 469.386 1444.89 466.845 1435.77 466.112C1425.03 465.23 1419.09 466.19 1411.88 469.848C1402.56 474.459 1382.79 482.547 1379.71 482.924C1378.22 483.107 1375.71 482.142 1374.08 480.838L1371.06 478.549L1371.53 468.431C1371.8 460.534 1372.35 457.807 1373.9 455.999C1375.09 454.812 1376.15 452.138 1376.36 450.031C1376.66 446.757 1376.18 445.891 1373.44 443.451C1371.68 441.816 1366.6 439.085 1362.3 437.183C1350.57 432.145 1350.42 431.699 1358.64 425.952C1362.52 423.28 1366.54 420.012 1367.64 418.837C1371.26 414.576 1373.9 407.2 1373.48 402.626C1372.91 396.566 1369.85 394.976 1359.41 395.213C1354.89 395.19 1348.58 394.459 1345.47 393.452C1341.23 392.122 1315.58 382.312 1314.62 381.736C1314.51 381.634 1314.01 380.539 1313.47 379.101C1312.79 377.218 1312.93 376.508 1313.94 376.615C1317.78 376.724 1330.32 374.262 1331.53 373.189C1333.29 371.586 1332.58 363.925 1330.3 359.926C1326.54 352.985 1318.22 342.441 1314.77 339.972C1308.86 335.84 1302.65 333.941 1297.08 334.623C1292.11 335.232 1291.8 335.154 1291.54 332.296C1291.39 330.695 1289.53 325.834 1287.5 321.341C1284.01 314.022 1283.72 313.017 1284.6 309.555C1285.58 305.966 1285.29 305.076 1281.66 298.467C1279.49 294.57 1277.63 290.751 1277.58 290.179C1277.51 289.493 1280.86 286.539 1285 283.487C1291.04 279.163 1292.77 277.217 1293.76 273.857C1295.4 268.685 1294.69 267.614 1286.8 262.684C1283.07 260.481 1280.64 258.119 1280.52 256.861C1280.42 255.718 1281.72 250.239 1283.43 244.826C1289.24 226.075 1286.14 219.748 1271.01 219.288C1265.96 219.097 1263.97 218.185 1263.65 215.796C1263.6 215.339 1264.27 214.91 1265.06 214.813C1269.14 214.314 1275.64 207.389 1275.6 203.693C1275.66 198.945 1274.93 197.531 1270.19 191.983C1264.12 185.094 1261.98 181.54 1260.01 174.381C1257.33 164.996 1255.16 150.229 1256.21 148.596C1256.73 147.608 1260.34 146.472 1265.69 145.585C1270.44 144.772 1278.46 142.287 1283.59 140.155C1294.63 135.565 1309.41 132.251 1313.55 133.593C1315.1 133.982 1318.84 137.456 1321.79 141.027C1330.73 151.841 1332.58 153.349 1336.96 152.814C1341.83 152.217 1343.3 150.764 1344.26 145.906C1344.95 142.468 1344.51 141.018 1340.68 133.278C1338.32 128.478 1336.06 123.552 1335.64 122.331C1335.33 121.097 1334.15 119.275 1333.25 118.23C1331.92 116.889 1331.75 116.101 1332.54 114.962C1333.52 113.571 1343.51 111.769 1350.76 111.806C1356.48 111.684 1360.95 107.898 1361.85 102.353C1362.48 98.3439 1363.03 97.6991 1364.77 98.0637C1370.4 99.1089 1380.42 104.126 1389.67 110.625C1405.36 121.538 1410.51 122.873 1415.13 117.335C1417.38 114.515 1417.67 113.323 1417.32 105.156C1417.06 96.9773 1417.19 96.1526 1419.01 96.2763C1420.11 96.2567 1423.14 96.3487 1425.76 96.375C1429.6 96.5981 1431.15 95.9459 1434.6 93.0941L1438.81 89.6875L1444.95 91.8273C1452.94 94.5483 1458.4 93.764 1464.89 88.9217C1470.25 84.9116 1472.72 81.1403 1475.53 72.4694C1477.89 65.3579 1479.43 65.6326 1483.92 73.986C1487.44 80.4932 1489.15 81.556 1492.68 79.5046C1494.77 78.2076 1495.18 77.2319 1494.89 74.0304C1494.47 69.5712 1490.21 59.3396 1487.55 56.6591C1486.66 55.7274 1484.15 54.762 1481.93 54.687L1477.98 54.3616L1477.44 48.5303C1477.13 45.2145 1475.69 39.3785 1474.22 35.5106C1472.76 31.6427 1471.73 28.1834 1472 27.8039C1472.27 27.4243 1475.87 30.4525 1480.07 34.5632C1487.59 41.9674 1487.7 42.0696 1492.25 41.1663L1496.89 40.2508L1500.24 46.084C1504.22 53.2285 1510.47 57.6673 1515.54 57.0461C1523.01 56.2469 1527.13 59.4429 1529.12 67.9866C1529.75 70.4533 1530.67 72.7692 1531.1 73.0635C1531.63 73.3456 1532.16 74.669 1532.28 76.041C1532.92 81.8602 1534.36 82.147 1550.27 80.1981L1565.09 78.4976L1568.35 73.4733C1570.12 70.8286 1572.11 68.5025 1572.91 68.405C1574.9 68.1614 1586.15 73.4898 1591.21 77.0336C1593.57 78.7094 1598.35 82.5183 1601.85 85.5587C1607.66 90.7445 1608.12 91.3818 1608.59 96.4127C1608.85 99.2712 1610.16 103.621 1611.39 106.014C1612.61 108.294 1615.4 113.502 1617.37 117.423C1619.46 121.447 1622.46 125.589 1624.07 126.779C1627.85 129.554 1632.12 128.916 1633.81 125.471L1635.08 122.887L1639.33 125.372C1649.97 131.701 1654.54 138.658 1661.13 158.781C1664.03 167.329 1666.63 174.759 1667.09 175.396C1667.55 175.919 1668.69 178.553 1669.64 181.212C1670.87 184.647 1672.02 186.24 1673.98 186.809C1677.5 187.882 1683.16 186.032 1686 183.024C1688.11 180.8 1688.24 179.976 1687.26 172.695C1686.39 165.515 1686.42 164.703 1688.38 163.075C1689.61 162.231 1691.23 159.141 1691.98 156.389C1695.74 143.787 1697.95 143.747 1704.05 156.414C1707.79 164.167 1709.29 166.295 1711.24 166.635L1713.69 167.029L1718.56 219.625C1722.72 264.561 1723.22 272.131 1721.92 271.134ZM1711.92 218.473C1710.54 212.282 1709.33 206.879 1709.29 206.422C1709.25 205.964 1708.16 206.213 1706.94 207.057C1704.48 208.746 1702.57 215.339 1702.21 223.362C1702.06 228.238 1705.61 238.326 1707.5 238.094C1709.09 237.9 1713.64 233.872 1714.01 232.439C1714.62 230.284 1714.66 230.741 1711.92 218.473ZM1621.61 214.155C1621.01 208.794 1619.6 207.694 1615.43 209.361C1611.66 210.98 1610.35 217.5 1611.99 226.435C1613.23 233.337 1616.7 245.863 1618.34 249.478C1618.99 251.017 1623.96 251.45 1624.94 250.058C1625.19 249.564 1624.04 237.101 1621.61 214.155ZM1616.55 173.609C1609.7 169.243 1606.82 175.031 1608.21 190.01C1609.04 198.928 1609.17 199.259 1611.62 199.653C1613.04 199.825 1614.81 199.377 1615.53 198.479C1617.25 196.419 1618.69 186.991 1618.92 176.44C1618.86 175.754 1617.82 174.377 1616.55 173.609ZM1598.85 109.632C1595.39 108.09 1594.08 109.175 1592.78 114.654C1591.32 120.615 1591.71 124.845 1594.13 129.175C1596.19 132.97 1596.6 133.036 1600.14 131.098C1602.8 129.5 1603.18 127.025 1602.09 117.445C1601.44 111.512 1601.05 110.519 1598.85 109.632ZM1541.03 160.657C1539.07 158.006 1536.11 153.165 1534.38 149.676C1532.56 146.315 1530.66 143.194 1530.02 142.809C1527.99 141.554 1523.36 142.584 1522.93 144.372C1522.43 146.63 1528.78 165.279 1531.5 169.572C1532.78 171.496 1535.01 173.883 1536.62 174.958C1539.2 176.723 1539.79 176.65 1542.36 175.064C1544.84 173.604 1545.25 172.628 1544.95 169.312C1544.71 166.797 1543.32 163.729 1541.03 160.657ZM1528.27 398.581C1525.24 396.178 1519.81 394.068 1517.42 394.36C1516.23 394.506 1511.75 397.137 1507.61 400.188C1502.33 404.072 1496.58 407.089 1489.08 409.742C1480.33 413.011 1477.27 414.659 1473.31 418.612C1470.64 421.253 1468.03 423.537 1467.64 423.586C1465.95 423.793 1427 445.215 1424.86 447.096C1423.56 448.296 1421.01 451.152 1419.23 453.569C1416.55 457.25 1416.16 458.454 1417.11 460.072C1417.96 461.587 1419.39 461.874 1423.07 461.423C1428.04 460.814 1430.46 459.709 1442.23 452.253C1446.03 449.822 1451.43 447.311 1454.27 446.5C1457.12 445.804 1463.28 442.738 1468.02 439.613C1473.81 435.897 1478.14 433.863 1481.13 433.497C1483.61 433.193 1488.47 431.326 1491.9 429.287C1495.34 427.362 1504.24 423.612 1511.66 421.199C1524.73 416.823 1525.21 416.534 1528.01 412.028C1531.25 406.775 1531.32 401.099 1528.27 398.581ZM1476.84 166.9C1474.57 163.016 1471.96 163.104 1468.92 167.177C1465.15 172.033 1466.76 178.543 1472.22 181.111C1474.12 182.035 1474.99 181.697 1476.9 179.497C1479.63 176.388 1479.61 171.766 1476.84 166.9ZM1474.74 325.465C1470.75 323.642 1451.74 327.936 1444.6 332.28L1438.6 335.906L1421.31 336.057C1406.05 336.308 1394.6 337.594 1388.3 340.101C1384.12 341.654 1363.89 352.342 1357.42 356.372C1352.1 359.684 1350.45 361.389 1349.42 364.406C1348.25 368.019 1348.28 368.362 1350.44 369.948C1353.47 372.351 1361.52 371.25 1368.82 367.58C1372.67 365.721 1380.52 363.603 1392.77 361.178C1402.83 359.135 1412.6 357.129 1414.47 356.669C1416.33 356.094 1422.73 355.658 1428.56 355.637L1439.11 355.616L1448.79 350.384C1454.14 347.415 1461.98 344.027 1466.18 342.703C1475.17 339.868 1478.01 336.86 1477.42 330.571C1477.15 327.599 1476.42 326.3 1474.74 325.465ZM1432.95 159.904C1429.34 153.523 1425.22 151.368 1421.84 153.979C1417.16 157.675 1418.3 164.589 1424.69 170.629C1428.56 174.433 1433.21 174.673 1435.09 171.089C1436.72 167.999 1436.34 166.08 1432.95 159.904ZM1389.96 300.466C1385.06 296.44 1379.32 295.293 1377.37 298.076C1376.29 299.48 1367.41 301.377 1346.33 305C1332.87 307.343 1329.47 307.528 1319.01 306.496C1303.49 305.044 1299.72 306.662 1302.75 313.345C1303.65 315.432 1306.31 316.957 1314.72 319.858C1325.01 323.454 1325.83 323.585 1336.88 322.462C1343.17 321.923 1354.44 320.89 1361.84 320.446C1382.32 318.978 1385.29 318.498 1387.96 315.858C1393.06 311.186 1393.9 303.915 1389.96 300.466ZM1362.48 325.224C1360.61 323.487 1353.72 325.026 1348.6 328.428C1343.85 331.438 1343.55 331.474 1339.59 329.993C1334.8 328.153 1332.96 328.956 1332.45 333.182C1331.6 340.339 1339.84 348.928 1347.78 348.88C1353.22 349.023 1359.77 344.752 1363.15 338.903C1364.97 335.789 1365.23 334.254 1364.49 330.644C1363.96 328.165 1363.03 325.735 1362.48 325.224ZM1305.69 189.831C1301.38 187.815 1299.51 186.078 1297.22 181.965C1295.65 179.15 1292.83 175.796 1291.12 174.733C1287.05 172.109 1279.44 169.225 1277.25 169.379C1274.76 169.683 1272.77 173.165 1273.11 176.824C1273.36 179.568 1274.25 180.499 1278.98 182.695C1283.4 184.814 1285.16 186.448 1288.15 191.518C1290.3 195.186 1291.75 198.939 1291.69 200.45C1291.34 204.309 1297.26 207.4 1303.63 206.62C1309.89 205.853 1312.86 202.135 1311.93 196.353C1311.3 192.845 1310.63 192.117 1305.69 189.831Z" fill="#8CA54F" fill-opacity="0.5"/>
<path d="M-102.121 481.141C-101.421 480.891 -100.473 481.206 -99.96 481.87C-98.155 484.25 -89.0524 488.077 -86.4384 487.705C-83.8436 487.223 -82.3329 484.796 -83.0016 482.104C-83.5936 479.852 -90.3844 476.195 -95.3882 475.383C-99.8233 474.703 -99.8233 474.703 -103.507 470.654C-105.54 468.394 -107.951 465.663 -108.92 464.664L-110.686 462.791L-107.268 457.081L-103.794 451.413L-105.863 440.136C-107.551 430.479 -108.447 427.62 -111.854 420.332L-115.926 411.79L-110.544 412.498C-106.337 413.011 -104.689 412.789 -102.967 411.569C-101.737 410.657 -100.299 409.802 -99.7117 409.756C-99.1814 409.668 -93.7755 412.497 -87.8567 415.99C-68.5446 427.424 -60.6164 431.343 -57.4152 430.925C-56.8279 430.879 -55.5239 429.256 -54.3913 427.22C-52.5414 423.895 -52.5042 423.54 -53.6248 422.237C-54.4032 421.473 -57.1736 419.531 -59.9242 417.986C-74.6071 409.48 -78.4015 407.071 -81.7621 403.738C-83.7175 401.917 -85.408 399.909 -85.4469 399.402C-85.6195 398.414 -65.4819 387.599 -57.0953 384.205C-48.3677 380.776 -46.8516 380.935 -35.5665 386.463C-28.5678 389.89 -24.6427 391.343 -21.1742 391.886C-16.7013 392.499 -15.9996 392.824 -9.22505 397.807C3.12852 406.895 7.52706 408.218 10.1321 403.536C11.831 400.482 11.4493 399.149 8.12883 396.898C6.53483 395.726 4.71428 394.96 4.14618 395.116C3.4834 395.298 0.31516 393.35 -4.35301 389.916C-10.8429 385.142 -12.4363 384.256 -17.2897 382.886C-23.0342 381.242 -31.9121 376.146 -32.6743 374.055C-33.0171 373.229 -31.8257 372.097 -27.5878 369.094C-22.5929 365.596 -20.8131 364.993 -16.3031 365.25C-14.9956 365.351 -14.334 364.595 -12.2575 360.863C-9.97309 356.901 -9.38702 356.28 -6.98219 355.563C-4.10395 354.716 -2.89107 354.843 8.40668 357.32C18.093 359.377 21.3141 359.356 28.5855 357.246C31.9749 356.201 36.4447 355.377 38.5098 355.27C40.6126 355.096 42.526 354.973 42.81 354.895C43.1318 354.749 45.4995 354.387 48.1134 354.015C54.4967 353.069 56.8824 352.242 60.7986 349.385C64.8849 346.366 66.301 343.965 65.4051 341.393C64.1851 337.818 64.867 337.746 49.6626 342.723C46.7089 343.706 42.5794 344.206 39.7749 344.056C36.7049 343.806 32.5946 344.416 28.2206 345.789C24.4717 347.047 20.0773 347.736 18.4473 347.493C15.5475 347.081 12.0952 345.211 12.5483 344.397C12.6615 344.193 17.7696 340.492 23.8617 336.175C44.8059 321.458 51.538 315.126 55.7635 306.09C57.9706 301.402 58.6885 300.4 60.5432 299.373C65.3882 296.721 67.2447 296.557 72.5535 298.263C79.7014 300.556 82.4112 300.733 89.0966 299.243C93.7175 298.148 95.9131 297.085 100.605 293.556C104.634 290.495 107.814 288.818 111.26 287.815C113.968 287.129 116.335 286.192 116.599 285.717C117.354 284.36 116.132 279.636 114.765 278.631C112.09 276.662 108.529 277.582 99.824 282.558C88.3746 289.149 82.0877 290.932 78.7859 288.503C77.875 287.833 77.2674 287.194 77.3429 287.059C77.4184 286.923 79.4613 285.27 81.826 283.471C92.6085 275.05 96.7116 270.992 99.6187 265.767C102.186 261.153 102.595 257.246 100.716 255.864C98.8374 254.482 96.68 255.763 91.784 261.247C85.5457 268.133 62.3309 284.335 59.7338 283.668C57.5914 283.049 57.0498 277.677 58.4778 271.938C60.7893 262.736 60.5167 259.189 57.4646 258.474C55.5123 258.09 53.0745 261.173 50.9261 266.765C48.6458 272.738 48.0459 275.835 48.0387 281.472C48.0632 284.168 47.5203 287.307 46.9354 288.502C46.3313 289.588 45.143 292.157 44.2944 294.114C42.2197 298.709 39.6297 301.489 32.1569 306.99C28.8274 309.513 24.0993 313.685 21.7741 316.278C15.9894 322.638 9.9369 327.749 9.30949 326.713C8.9865 326.284 8.96016 322.727 9.17952 318.872L9.48701 311.83L13.4709 305.102C16.6429 299.689 17.6047 297.528 18.204 294.143C18.8596 290.514 18.7254 289.745 17.4154 288.495C14.9855 286.229 13.6233 287.235 10.1506 293.766C3.28057 306.69 1.64156 311.223 0.730606 319.637C-0.27326 328.94 -1.55628 331.535 -9.62836 340.419C-14.1276 345.334 -15.6222 346.434 -21.9252 349.543C-25.9001 351.496 -30.0835 353.392 -31.2005 353.813C-33.6239 354.708 -34.8776 353.212 -33.5939 350.905C-33.1031 350.023 -32.2558 347.49 -31.6918 345.323C-31.1279 343.156 -28.6775 337.021 -26.1683 331.79C-22.3013 323.542 -21.548 321.323 -20.7443 315.985C-19.7908 309.801 -19.81 309.691 -21.9164 308.142C-23.5673 306.927 -24.4201 306.874 -26.0099 307.713C-27.9593 308.765 -28.0348 308.901 -28.6845 315.404C-29.3347 321.62 -29.6547 322.627 -33.3906 330.207C-35.636 334.676 -40.3355 343.555 -43.8466 349.866C-51.2086 363.098 -52.494 364.543 -61.7676 369.675C-64.7956 371.369 -68.9203 374.168 -70.8116 375.837C-74.6888 379.201 -77.5856 380.225 -85.4659 381.123C-88.8757 381.483 -92.5299 382.716 -95.9745 384.581C-102.125 387.994 -102.922 387.695 -105.398 381.474C-106.883 377.8 -107.32 377.287 -109.064 376.96C-111.831 376.455 -113.362 378.485 -115.583 385.362C-117.127 390.155 -117.75 391.418 -119.886 393.672C-121.266 395.143 -122.628 396.437 -123.006 396.541C-123.385 396.645 -124.733 395.462 -126.138 393.95C-127.486 392.48 -130.58 389.822 -133.047 388.198L-137.506 385.109L-138.711 379.633C-139.801 374.814 -145.93 361.317 -147.581 360.102C-147.979 359.809 -148.021 357.865 -147.704 355.708C-147.386 353.551 -147.15 348.657 -147.177 344.812C-147.274 334.603 -147.183 332.853 -146.444 332.823C-142.029 332.819 -129.723 337.377 -129.378 339.065C-129.282 339.614 -128.353 340.106 -127.235 340.26C-126.136 340.303 -122.439 341.301 -119.083 342.335C-115.67 343.411 -111.519 344.17 -109.738 344.141C-105.76 343.912 -96.7878 339.61 -93.1005 336.011C-90.3775 333.424 -89.6602 332.135 -87.5891 325.816C-87.1372 324.428 -87.0036 324.908 -87.1876 327.546C-87.3338 330.116 -88.6139 334.147 -91.4604 341.138C-96.607 353.705 -99.5895 359.066 -105.202 366.126C-109.265 371.266 -109.643 371.944 -109.374 373.481C-109.01 375.566 -106.715 376.488 -104.899 375.243C-104.237 374.773 -101.288 371.492 -98.3396 367.923C-93.8793 362.502 -92.2552 359.871 -87.877 351.425C-85.0275 345.871 -82.3679 340.081 -81.9922 338.54C-80.6192 333.621 -77.675 328.041 -75.5189 326.184C-71.7926 323.092 -70.6055 319.949 -71.3917 315.45C-72.2929 310.292 -74.096 308.774 -78.2052 309.959C-81.1026 310.697 -81.3105 310.927 -83.4044 315.411C-84.5927 317.979 -85.4041 319.582 -85.2351 318.846C-84.6712 316.679 -86.6661 314.063 -91.9036 310.211C-96.9702 306.484 -101.016 301.499 -109.418 288.624C-111.528 285.351 -112.477 284.461 -113.804 284.251C-115.282 284.024 -123.34 281.347 -124.08 280.803C-124.251 280.677 -123.213 278.668 -121.873 276.402C-118.852 271.261 -118.516 268.639 -120.382 264.493C-121.124 262.8 -121.658 261.164 -121.582 261.028C-121.469 260.824 -119.936 259.944 -118.157 259.053C-109.962 254.849 -108.092 251.921 -109.318 245.473C-110.621 238.586 -116.145 233.374 -123.651 231.869C-126.115 231.395 -128.353 230.801 -128.694 230.55C-129.491 229.964 -128.188 227.766 -126.088 226.155C-124.461 224.961 -124.253 225.019 -121.576 227.562C-118.785 230.189 -118.785 230.189 -114.278 229.009C-111.722 228.308 -107.764 227.394 -105.415 226.923L-101.192 226.109L-99.174 221.473C-95.8738 213.955 -94.4757 212.019 -91.3152 210.232C-88.2872 208.538 -86.7902 208.587 -87.7718 210.352C-88.5647 211.777 -87.1727 216.052 -84.9123 218.767C-83.8864 220.095 -82.0814 222.475 -81.0172 224.023C-79.5352 225.974 -78.5291 226.905 -77.487 226.907C-75.4214 227.087 -70.9574 223.39 -66.6487 217.953C-61.5652 211.556 -59.4138 207.401 -57.9486 201.306C-55.9943 193.468 -51.082 177.573 -49.9117 175.469C-49.3454 174.451 -47.813 173.283 -46.5067 172.81L-44.1402 171.873L-39.7159 176.466C-36.2223 179.993 -35.215 181.499 -35.0598 183.239C-35.0382 184.498 -34.2766 186.301 -33.4029 187.326C-32.0354 188.906 -31.4289 188.97 -29.1188 188.278C-27.6039 187.863 -24.1407 185.82 -21.3973 183.917C-13.9809 178.662 -13.7154 178.762 -14.6659 186.383C-15.1322 189.96 -15.3893 193.883 -15.33 195.075C-14.9615 199.171 -12.7347 203.965 -10.4575 205.64C-7.44028 207.859 -5.37763 206.603 -0.938873 199.923C1.0447 197.079 4.1255 193.416 5.94127 191.883C8.40004 189.771 24.0635 177.768 24.7449 177.409C24.8396 177.383 25.5599 177.53 26.451 177.803C27.6075 178.176 27.8736 178.563 27.3822 179.158C25.6629 181.527 21.3236 190.48 21.2882 191.697C21.2541 193.489 25.0683 196.295 27.892 196.555C32.7058 197.131 41.1547 196.366 43.7861 195.241C48.2536 193.268 51.8282 190.159 53.9424 186.359C55.8301 182.967 56.0002 182.805 57.4235 183.852C58.2205 184.438 61.2539 185.331 64.1921 185.962C69.0634 186.868 69.6513 187.109 70.8492 189.138C72.0662 191.276 72.5972 191.476 77.2025 191.994C79.9315 192.281 82.4903 192.728 82.7749 192.938C83.1165 193.189 83.0098 196.553 82.6011 200.46C81.9496 206.102 82.0862 208.019 83.1894 210.074C84.8445 213.3 85.6404 213.311 91.3375 210.425C93.9683 209.014 96.1082 208.484 96.7344 208.945C97.3037 209.363 99.2429 212.511 100.974 215.889C107.023 227.511 111.269 228.243 118.071 218.902C120.357 215.803 121.644 214.932 122.877 215.744C123.105 215.911 123.011 216.512 122.709 217.055C121.161 219.837 121.498 226.874 123.206 228.418C125.352 230.474 126.318 230.612 130.921 229.981C136.717 229.081 139.275 229.241 143.41 231.039C148.871 233.336 156.574 238.237 156.861 239.596C157.09 240.338 156.035 243.1 154.11 246.848C152.412 250.189 150.056 256.298 148.795 260.438C146.085 269.347 141.162 280.07 138.741 282.114C137.89 282.923 134.671 283.806 131.754 284.146C122.907 285.194 121.412 285.719 119.75 288.705C117.901 292.03 117.923 293.576 119.728 296.243C121.002 298.136 121.855 298.477 127.067 299.347C130.289 299.9 133.531 300.563 134.27 300.821C134.972 301.145 136.317 301.179 137.189 301.055C138.382 300.785 138.818 301.01 138.991 301.998C139.202 303.205 135.673 310.268 132.499 314.819C130.063 318.477 129.845 322.907 131.992 325.825C133.55 327.928 133.608 328.544 132.681 329.488C129.751 332.592 123.09 336.777 116.086 339.849C104.255 345.108 101.399 347.789 101.922 353.05C102.23 355.668 102.649 356.358 106.54 359.603C110.393 362.916 110.716 363.345 109.866 364.441C109.393 365.145 108.033 367.013 106.881 368.652C105.104 370.979 104.728 372.233 104.527 375.623L104.251 379.723L100.6 382.68C95.8715 386.565 93.8519 390.339 93.2394 396.487C92.7384 401.569 93.3892 404.726 96.1289 410.184C98.3551 414.69 97.5611 415.541 91.7806 414.827C87.27 414.282 86.0398 414.907 85.4399 418.004C85.1217 419.874 85.3883 420.548 86.9823 421.721C89.2026 423.354 95.7428 425.009 98.1291 424.47C98.9435 424.304 100.476 423.136 101.477 421.768L103.348 419.415L106.251 421.551C107.902 422.765 111.202 424.332 113.61 425.052C116.018 425.771 118.047 426.594 118.105 426.923C118.162 427.253 115.208 428.236 111.497 429.139C104.83 430.738 104.736 430.764 103.17 434.011L101.566 437.326L97.435 436.965C92.4318 436.44 87.6803 438.491 85.7549 441.952C82.8664 447 79.61 448.238 74.8303 445.87C73.4269 445.22 71.9671 444.815 71.6453 444.961C71.2857 445.175 70.4516 444.944 69.7685 444.441C66.8273 442.373 66.071 443.156 60.0304 454.013L54.3482 464.082L55.2284 468.268C55.6689 470.504 55.863 472.751 55.561 473.294C54.8059 474.651 47.4644 479.483 43.6405 481.165C41.8421 481.946 38.0176 483.34 35.1016 484.255C30.1973 485.716 29.7047 485.736 27.1999 483.893C25.7766 482.846 23.2166 481.824 21.5867 481.581C20.0136 481.38 16.4127 480.931 13.7592 480.509C11.011 480.113 7.80914 480.244 6.55968 480.759C3.6443 481.962 2.07781 484.921 2.91675 487.451L3.54594 489.349L0.555649 490.974C-6.97706 494.996 -12.1498 494.92 -24.2284 490.53C-29.4048 488.73 -33.9363 487.213 -34.4289 487.234C-34.8646 487.296 -36.5707 486.901 -38.2012 486.371C-40.3058 485.684 -41.5373 485.734 -42.6531 486.73C-44.6768 488.493 -46.2973 492.848 -46.1583 495.914C-46.0588 498.187 -45.7358 498.616 -41.9791 501.093C-38.3171 503.595 -37.9563 503.956 -38.066 505.884C-38.2152 507.017 -37.5093 509.353 -36.5775 510.995C-32.4499 518.717 -33.3944 520.127 -41.848 518.594C-47.0226 517.656 -48.652 517.701 -49.654 518.781L-50.9016 520.158L-77.0889 500.894C-99.462 484.436 -103.144 481.536 -102.121 481.141ZM-73.6671 497.195C-70.234 498.956 -67.2371 500.491 -67.0094 500.658C-66.7817 500.826 -66.4234 500.037 -66.2741 498.904C-65.9757 496.637 -68.1629 492.637 -71.6757 489.001C-73.8402 486.835 -80.0024 484.789 -80.7197 486.078C-81.3237 487.164 -81.4658 491.745 -80.9714 492.587C-80.2487 493.884 -80.4765 493.716 -73.6671 497.195ZM-32.3436 442.1C-29.6302 444 -28.5132 443.579 -27.4591 440.242C-26.556 437.177 -28.9697 433.584 -33.7691 430.819C-37.4683 428.671 -44.7127 425.542 -47.0822 425.042C-48.0679 424.795 -50.4303 427.743 -50.2193 428.95C-50.1049 429.321 -43.8996 433.886 -32.3436 442.1ZM-11.5861 456.126C-6.60808 453.668 -8.00011 449.393 -15.4578 443.907C-19.8983 440.64 -20.1068 440.582 -21.3545 441.96C-22.0538 442.784 -22.6195 444.089 -22.523 444.925C-22.3295 446.885 -18.6435 451.796 -13.916 456.421C-13.5745 456.672 -12.4946 456.606 -11.5861 456.126ZM25.3944 472.141C27.6081 470.614 27.6812 469.329 25.7421 466.181C23.6507 462.73 21.5443 461.181 18.5121 460.863C15.8777 460.55 15.6698 460.78 15.013 463.835C14.5821 466.196 15.5511 467.482 20.4086 470.864C23.4067 472.974 24.0323 473.148 25.3944 472.141ZM27.2443 414.02C29.3094 413.913 32.815 414.102 35.1653 414.492C37.4964 414.772 39.7514 414.901 40.2056 414.661C41.663 413.916 43.2097 410.559 42.5823 409.524C41.765 408.253 30.4642 404.339 27.3187 404.225C25.8787 404.218 23.8143 404.611 22.6218 405.169C20.6909 406.043 20.4644 406.451 20.0713 408.743C19.659 410.927 19.9256 411.601 21.5766 412.815C22.829 413.737 24.8383 414.163 27.2443 414.02ZM-76.0556 304.942C-73.6322 304.047 -70.3027 301.524 -69.3966 299.895C-68.9435 299.081 -68.1938 295.138 -67.7851 291.231C-67.2649 286.258 -66.1382 281.349 -64.0851 275.496C-61.7689 268.593 -61.187 265.961 -61.2715 261.787C-61.3152 258.981 -61.2259 256.369 -61.0748 256.098C-60.433 254.944 -53.265 221.296 -53.1936 219.149C-53.1774 217.822 -53.3728 215 -53.6993 212.847C-54.2177 209.597 -54.5982 208.839 -55.7542 208.754C-56.8154 208.643 -57.5717 209.425 -58.9686 211.936C-60.8563 215.329 -61.4016 217.318 -63.1228 227.91C-63.6652 231.337 -64.8685 235.807 -65.7357 237.942C-66.6598 240.036 -67.9374 245.216 -68.5727 249.53C-69.3955 254.758 -70.3544 258.356 -71.487 260.392C-72.4308 262.089 -73.6923 265.942 -74.2544 268.971C-74.8735 271.959 -77.0375 279.165 -79.1667 284.866C-82.8594 294.964 -82.9343 295.387 -82.093 299.067C-81.0989 303.336 -78.5359 305.795 -76.0556 304.942ZM52.3548 370.906C55.1216 371.124 56.217 369.444 55.6789 365.796C55.1013 361.355 51.4219 359.605 47.8647 361.961C46.6158 362.763 46.3899 363.458 46.5649 365.595C46.7985 368.636 48.9247 370.582 52.3548 370.906ZM-19.276 302.242C-16.7028 300.501 -10.3841 286.693 -9.26039 280.347L-8.30511 275.025L-0.843658 264.066C5.69193 254.337 10.0905 246.576 11.6906 241.537C12.8017 238.242 16.7258 220.951 17.699 215.164C18.5039 210.4 18.4434 208.635 17.511 206.705C16.3694 204.431 16.1986 204.306 14.5327 204.993C12.1093 205.888 9.10814 211.426 7.60513 217.588C6.77813 220.805 4.32711 226.653 0.101059 235.402C-3.35133 242.617 -6.69046 249.628 -7.29393 251.001C-7.84046 252.416 -10.4275 256.633 -12.9588 260.317L-17.5492 266.982L-19.3698 275.301C-20.3454 279.939 -22.208 286.315 -23.4329 289.526C-26.0523 296.397 -25.9133 299.464 -22.7822 301.767C-21.3021 302.856 -20.3924 302.951 -19.276 302.242ZM74.6804 346.208C79.1718 346.643 81.9536 344.96 82.231 341.721C82.5817 337.198 78.9202 334.982 73.3717 336.447C69.9439 337.273 67.8088 340.101 68.6291 342.809C69.335 345.145 70.3783 345.721 74.6804 346.208ZM29.1024 259.414C33.0785 258.035 36.1036 254.905 35.6817 252.491C35.5086 251.216 38.5079 244.816 46.0371 229.985C50.8301 220.505 52.2276 218.282 57.2548 212.13C64.6821 202.962 65.5852 199.897 61.2064 198.971C59.8605 198.65 58.0058 199.677 53.0121 203.749C46.8835 208.708 46.4676 209.167 42.1631 216.616C39.6707 220.807 35.2337 228.35 32.2122 233.203C23.9603 246.737 22.8847 248.815 22.9284 251.62C22.8444 256.818 25.8077 260.433 29.1024 259.414ZM29.7457 231.58C31.3553 231.139 33.6565 226.137 34.3289 221.468C35.0211 217.196 35.1344 216.992 37.5368 215.125C40.469 212.883 40.9017 211.385 39.192 209.266C36.2857 205.694 28.7668 207.239 25.3288 212.265C22.8916 215.636 21.9944 221.575 23.1977 226.19C23.8281 228.662 24.4171 229.477 26.3899 230.546C27.7556 231.264 29.2723 231.71 29.7457 231.58ZM116.437 253.275C119.237 251.414 120.847 250.972 123.728 251.274C125.698 251.481 128.464 251.125 129.694 250.5C132.666 249.052 137.301 245.48 138.188 244.029C139.132 242.333 138.406 239.599 136.585 238.259C135.218 237.254 134.404 237.42 131.339 239.469C128.444 241.356 126.929 241.771 123.309 241.499C120.694 241.297 118.343 240.62 117.679 239.939C116.064 238.082 112.071 240.501 109.655 244.843C107.277 249.118 107.682 252.572 110.736 254.437C112.614 255.531 113.239 255.417 116.437 253.275Z" fill="#8CA54F" fill-opacity="0.5"/>
</g>
<defs>
<clipPath id="clip0_1_2">
<rect width="1440" height="903" fill="white"/>
</clipPath>
</defs>
</svg>
