<svg class="img-fluid" id="outputsvg" xmlns="http://www.w3.org/2000/svg" style="transform: none; transform-origin: 50% 50%; cursor: move; max-height: none;" width="86" height="86" viewBox="0 0 860 860">
<g id="l6zFN4xZu1hgbz1lAfEYD2" fill="rgb(29,29,27)" style="transform: none;">
<g style="transform: none;">
<path id="pxoPUGOBL" d="M486 841 c-3 -5 -15 -7 -25 -4 -10 3 -22 0 -25 -6 -4 -6 -23 -11 -43 -11 -25 0 -36 -5 -40 -18 -4 -17 -14 -24 -81 -56 -27 -12 -32 -20 -27 -36 5 -15 2 -20 -13 -20 -27 0 -49 -27 -34 -42 21 -21 13 -28 -35 -28 -63 0 -77 -10 -71 -49 3 -19 0 -32 -9 -35 -19 -8 -16 -36 3 -36 14 0 15 -2 3 -17 -8 -9 -27 -24 -43 -34 l-29 -18 26 -12 c32 -14 34 -25 8 -34 -21 -6 -25 -16 -36 -77 -5 -31 -3 -37 10 -32 10 4 15 0 15 -14 0 -12 5 -24 12 -28 7 -5 4 -10 -11 -15 -18 -7 -20 -12 -11 -29 6 -12 8 -29 5 -40 -3 -10 -3 -30 0 -43 6 -24 10 -25 71 -24 35 1 64 -1 64 -5 0 -11 108 -10 114 1 3 5 21 10 38 10 18 1 49 2 68 4 34 2 35 1 38 -38 4 -53 15 -62 40 -31 11 14 25 26 31 26 6 0 11 6 11 13 0 7 8 20 19 29 10 8 21 22 23 29 5 12 9 12 27 1 19 -11 24 -9 46 15 13 16 27 37 31 48 4 11 17 34 29 50 12 17 25 38 29 49 5 15 9 16 21 6 12 -10 18 -10 30 0 8 7 15 17 15 22 0 5 7 16 15 24 8 9 15 27 15 40 0 14 7 36 16 49 9 14 14 31 11 40 -4 8 -2 17 3 20 27 17 -27 193 -75 245 -19 19 -21 29 -14 43 7 12 17 16 29 12 16 -5 19 -1 17 24 -1 17 -8 31 -14 31 -14 0 -46 -29 -60 -55 -9 -16 -12 -16 -41 -1 -17 9 -36 16 -41 16 -6 0 -27 11 -47 25 -36 25 -97 34 -108 16z m68 -60 c9 -10 30 -21 47 -25 16 -3 40 -17 52 -30 12 -13 33 -26 46 -28 27 -4 31 -9 66 -99 28 -74 31 -115 10 -143 -8 -11 -15 -32 -15 -48 0 -27 -2 -28 -45 -28 -41 0 -45 -2 -45 -24 0 -37 -18 -76 -34 -76 -15 0 -26 -21 -26 -48 0 -25 -31 -52 -61 -52 -15 0 -35 -7 -44 -16 -14 -14 -32 -16 -126 -10 -94 6 -110 5 -115 -8 -10 -26 -34 -19 -34 9 0 21 -5 25 -31 25 -21 0 -40 -9 -55 -25 -35 -38 -47 -32 -40 19 10 65 -3 146 -23 146 -12 0 -9 6 11 23 18 15 28 33 30 57 2 26 9 38 27 45 21 9 23 14 17 68 l-6 57 36 0 c47 0 74 16 74 44 0 13 9 31 20 41 11 10 20 24 20 32 0 7 9 13 20 13 11 0 23 7 26 15 4 8 17 15 30 15 17 0 24 6 24 20 0 14 7 20 23 20 13 0 27 4 33 9 8 8 35 17 60 20 6 0 19 -7 28 -18z"></path></g></g><g id="l3puVylAeiCOMWYdbBB2AQ1" fill="rgb(151,180,92)" style="transform: none;"><g style="transform: none;"><path id="pFG5NaxGo" d="M490 828 c-19 -5 -42 -12 -50 -15 -8 -4 -22 -8 -30 -8 -8 -1 -21 -3 -28 -4 -9 0 -11 -8 -7 -21 5 -16 2 -20 -18 -20 -14 0 -27 -7 -31 -15 -3 -8 -13 -15 -23 -15 -10 0 -23 -10 -28 -22 -8 -18 -22 -29 -53 -45 -2 -1 1 -10 7 -22 15 -27 -11 -41 -73 -41 -33 0 -46 -4 -46 -14 0 -8 5 -18 11 -21 7 -5 5 -13 -6 -25 -16 -17 -15 -19 4 -30 23 -12 28 -30 9 -30 -7 0 -26 -11 -43 -25 -23 -19 -26 -24 -12 -25 26 0 21 -37 -8 -56 -30 -19 -37 -84 -9 -84 11 0 14 -6 9 -20 -4 -12 -1 -28 6 -37 11 -13 10 -17 -6 -29 -10 -8 -14 -14 -7 -14 8 0 10 -14 5 -45 l-6 -45 47 0 c38 0 52 5 71 26 l25 27 0 -32 c0 -25 4 -32 18 -29 9 1 22 -1 28 -5 7 -4 24 5 38 20 24 24 30 25 48 14 12 -8 34 -10 58 -6 24 4 41 2 45 -5 5 -8 11 -8 21 1 11 9 14 8 14 -4 0 -9 -4 -19 -10 -22 -5 -3 -10 -15 -10 -25 0 -15 8 -11 40 20 22 21 40 43 40 49 0 12 48 27 57 17 10 -10 53 35 53 55 0 28 11 49 26 49 16 0 34 39 34 76 0 31 9 30 37 -3 16 -21 22 -24 23 -12 0 9 7 22 15 29 8 7 15 24 15 39 0 15 6 36 14 47 8 11 17 46 20 77 4 44 1 64 -13 89 -11 18 -25 52 -32 76 -13 46 -25 60 -55 65 -11 1 -29 12 -42 25 -12 12 -34 24 -49 28 -16 4 -37 14 -48 24 -27 23 -53 28 -95 18z"></path></g></g><g id="ll2CbV9gbP80wgxFZvjqOU" fill="rgb(255,255,255)" style="transform: none;"><g style="transform: none;"><path id="p6zusQIQn" d="M592 738 c3 -7 19 -23 38 -35 29 -20 26 -31 -5 -23 -186 49 -285 63 -285 40 0 -5 17 -10 38 -10 44 -1 231 -45 244 -58 14 -14 -19 -60 -45 -64 -16 -2 -21 -9 -20 -25 3 -29 -68 -99 -108 -107 -17 -3 -47 -6 -65 -6 -19 0 -34 -4 -34 -10 0 -5 21 -10 48 -10 l47 -1 -29 -25 c-19 -17 -39 -25 -60 -23 -50 3 -76 0 -76 -10 0 -6 17 -11 38 -13 l37 -3 -38 -22 c-24 -15 -54 -23 -83 -23 -24 0 -44 -4 -44 -10 0 -5 9 -10 20 -10 33 0 23 -18 -27 -47 -42 -24 -45 -28 -25 -31 13 -2 30 2 38 9 23 19 28 3 5 -20 -12 -12 -21 -29 -21 -38 0 -26 59 35 68 71 6 21 16 32 36 37 15 4 43 20 62 34 38 29 58 27 31 -3 -10 -10 -17 -22 -17 -26 0 -4 -9 -19 -20 -33 -21 -28 -26 -53 -10 -53 6 0 10 7 10 15 0 8 4 15 9 15 12 0 61 88 68 121 3 15 18 36 34 48 l29 22 0 -24 c0 -37 12 -87 20 -87 4 0 8 32 8 71 1 64 4 75 28 100 34 35 44 36 44 5 0 -31 10 -56 22 -56 5 0 8 24 7 54 -3 53 26 132 47 130 16 -2 61 -101 68 -150 10 -75 26 -78 21 -3 -3 46 -13 81 -35 124 l-31 60 26 23 c28 24 26 42 -7 42 -22 0 -78 30 -78 42 0 4 -7 8 -16 8 -9 0 -14 -6 -12 -12z"></path><path id="p1HWO4qa2H" d="M193 583 c10 -16 176 -38 189 -25 6 6 10 14 7 16 -10 10 -202 19 -196 9z"></path><path id="pDSrgCsOo" d="M187 451 c-77 -8 -68 -26 13 -25 81 1 142 12 135 25 -6 9 -51 10 -148 0z"></path><path id="p18EHzykBr" d="M117 403 c-13 -12 -7 -22 16 -26 20 -4 20 -4 -4 -6 -27 -1 -68 -26 -58 -35 3 -3 19 -1 35 4 16 5 46 12 67 15 39 6 49 32 11 28 -10 -1 -23 5 -27 13 -8 15 -29 19 -40 7z"></path><path id="prpks0Efp" d="M590 383 c0 -18 5 -33 10 -33 13 0 13 30 0 50 -7 11 -10 7 -10 -17z"></path><path id="pgfnuNlSh" d="M600 321 c0 -12 5 -21 10 -21 6 0 10 6 10 14 0 8 -4 18 -10 21 -5 3 -10 -3 -10 -14z"></path><path id="pm22VVCGW" d="M487 263 c-10 -10 -8 -43 2 -43 9 0 21 24 21 41 0 11 -14 12 -23 2z"></path><path id="pD5xa3eZB" d="M600 225 c0 -8 5 -15 10 -15 6 0 10 7 10 15 0 8 -4 15 -10 15 -5 0 -10 -7 -10 -15z"></path><path id="pbNII7MXd" d="M100 181 c0 -11 -6 -21 -12 -24 -7 -2 -9 -8 -5 -13 5 -5 17 1 28 15 23 28 24 41 4 41 -8 0 -15 -9 -15 -19z"></path>
</g>
</g>
</svg>
