<svg class="img-fluid" id="outputsvg" xmlns="http://www.w3.org/2000/svg" style="transform: none; transform-origin: 50% 50%; cursor: move;" width="117" height="120" viewBox="0 0 1170 1200"><g id="l5XZUgQ3HnCrfnBZPwFbE16" fill="rgb(29,29,27)" style="transform: none;"><g><path id="pwWBstCwg" d="M90 1164 c0 -15 15 -39 42 -64 39 -39 40 -41 22 -54 -10 -8 -28 -31 -39 -52 -11 -21 -37 -54 -57 -72 -43 -39 -64 -96 -49 -134 6 -15 5 -31 -1 -42 -6 -11 -6 -21 1 -30 6 -7 8 -27 5 -44 -8 -39 2 -82 19 -82 13 -1 38 -51 56 -118 11 -39 15 -43 37 -38 20 5 24 3 24 -17 0 -12 7 -33 16 -45 15 -22 44 -30 44 -12 0 14 27 13 32 -1 2 -7 -3 -38 -11 -69 -18 -71 -8 -90 48 -90 28 0 38 -5 46 -22 13 -30 36 -29 51 0 11 23 12 22 38 -22 14 -24 26 -51 26 -60 0 -28 18 -26 43 4 26 31 41 27 48 -15 3 -14 20 -25 59 -38 30 -10 60 -23 67 -29 10 -8 13 -5 13 13 0 21 5 24 44 25 38 1 43 -1 38 -19 -4 -17 -1 -19 34 -15 22 3 50 -1 65 -8 15 -8 41 -11 61 -8 33 6 34 8 46 70 7 35 12 73 12 84 0 11 6 20 14 20 15 0 26 21 26 51 0 11 6 28 12 39 10 16 9 25 -4 48 -11 18 -14 33 -8 42 5 8 9 41 9 72 -1 31 2 61 6 67 8 14 88 14 102 0 6 -6 16 -8 22 -5 18 12 12 44 -12 61 -12 8 -22 26 -22 38 0 15 -7 23 -22 25 -12 2 -24 13 -27 27 -3 13 -15 27 -26 30 -23 7 -27 40 -5 49 27 10 19 27 -42 89 -48 49 -143 127 -153 127 -6 0 -10 7 -10 15 0 8 5 15 10 15 6 0 10 10 10 23 0 29 -70 87 -115 94 -21 3 -40 15 -50 29 -10 16 -29 26 -55 30 -22 4 -40 10 -40 15 0 5 -13 9 -28 9 -15 0 -33 5 -39 11 -9 9 -29 8 -80 -4 -37 -9 -90 -19 -118 -23 -27 -3 -67 -17 -89 -31 l-39 -25 -21 21 c-18 19 -19 23 -6 31 22 14 -2 34 -45 37 -31 2 -35 -1 -35 -23z m464 -59 c11 -8 29 -15 41 -15 12 0 32 -11 44 -24 13 -14 40 -28 61 -31 40 -7 59 -29 34 -39 -11 -4 -14 -18 -12 -48 3 -41 4 -42 51 -54 58 -15 77 -29 77 -59 0 -21 34 -45 62 -45 31 0 48 -33 48 -95 0 -59 2 -63 25 -69 29 -7 34 -26 6 -26 -14 0 -20 -10 -25 -46 -3 -26 -6 -64 -6 -85 0 -32 -3 -39 -20 -39 -17 0 -20 -7 -20 -49 0 -31 5 -53 15 -61 8 -7 15 -23 15 -36 0 -21 -5 -24 -40 -24 -39 0 -40 -1 -40 -37 0 -22 8 -45 19 -57 13 -15 17 -30 14 -54 -5 -32 -16 -41 -28 -22 -3 6 -19 10 -36 10 -16 0 -29 4 -29 9 0 4 -37 12 -82 16 -70 6 -84 4 -94 -10 -10 -13 -17 -14 -33 -5 -12 6 -21 17 -21 25 0 24 -37 50 -77 55 -38 5 -40 8 -59 78 -3 11 -20 12 -78 7 l-73 -7 4 48 c3 27 1 65 -4 84 -8 31 -13 35 -46 38 -26 2 -37 8 -37 19 0 21 -29 53 -47 53 -8 0 -13 12 -13 35 0 22 -6 38 -15 41 -9 4 -15 19 -15 40 0 26 -4 34 -19 34 -15 0 -19 11 -26 68 -12 107 -11 112 37 157 23 22 51 55 61 74 9 18 30 38 47 44 17 6 30 19 30 28 0 32 40 53 133 70 117 21 147 22 171 4z"></path></g></g><g id="l2sZJsvb7pKBy4nozQ5ly0v" fill="rgb(30,95,81)" style="transform: none;"><g><path id="piFVkAVE0" d="M454 1150 c-12 -5 -59 -14 -103 -20 -85 -13 -131 -37 -131 -69 0 -9 -13 -21 -30 -28 -17 -6 -38 -26 -47 -44 -10 -19 -38 -53 -63 -76 l-45 -42 -2 -76 c-1 -41 3 -75 8 -75 12 0 12 -33 -1 -46 -5 -5 -7 -19 -4 -32 5 -18 11 -21 32 -15 24 6 24 4 18 -29 -6 -31 -3 -36 14 -41 18 -5 20 -10 14 -41 -5 -31 -4 -36 13 -36 27 0 53 -31 53 -64 0 -24 3 -26 23 -20 41 13 50 9 59 -24 6 -22 4 -48 -6 -82 -17 -57 -11 -65 40 -56 19 4 34 3 34 -1 0 -4 4 -14 9 -21 6 -11 14 -8 35 13 28 28 46 26 46 -6 0 -11 10 -39 22 -62 19 -36 23 -39 26 -19 2 13 10 22 21 22 21 0 61 -36 61 -55 0 -17 13 -25 59 -36 31 -7 38 -5 53 13 13 18 19 20 31 9 10 -8 28 -10 50 -6 30 6 35 4 41 -17 4 -14 9 -18 13 -10 6 16 24 15 59 -3 56 -29 69 -22 80 46 10 58 9 63 -13 89 -32 38 -29 43 17 35 39 -7 40 -6 40 24 0 17 5 31 10 31 17 0 11 22 -15 56 -30 40 -32 64 -5 64 21 0 25 15 21 76 -2 23 4 36 20 48 23 16 23 16 4 31 -20 14 -19 14 3 15 12 0 25 -7 28 -15 4 -8 17 -15 29 -15 23 0 23 1 9 30 -9 17 -20 30 -25 30 -5 0 -11 11 -15 25 -4 15 -16 28 -30 31 -19 5 -24 13 -24 38 0 18 5 37 12 44 8 8 4 20 -16 47 -15 19 -33 35 -41 35 -31 0 -65 24 -65 45 0 30 -19 44 -77 59 -50 13 -66 38 -26 44 12 2 27 9 33 17 15 18 -41 72 -85 81 -18 3 -43 17 -56 30 -12 13 -32 24 -44 24 -11 0 -29 6 -40 14 -26 17 -104 27 -131 16z"></path></g></g><g id="l6bzgCTinz9wd0w49GDYhDA" fill="rgb(255,255,255)" style="transform: none;"><g><path id="pm3zm6XJC" d="M420 1105 c-13 -14 -21 -28 -17 -31 10 -10 79 26 74 39 -7 22 -33 18 -57 -8z"></path><path id="p1OPDbj5t" d="M267 1053 c-4 -3 -7 -16 -7 -27 -1 -24 -34 -65 -73 -91 -15 -9 -27 -24 -27 -31 0 -25 30 -14 70 26 22 22 42 40 45 40 10 0 4 -36 -9 -56 -8 -11 -39 -73 -69 -139 -59 -129 -78 -205 -52 -205 8 0 17 12 20 28 14 64 28 103 78 201 63 126 75 136 117 96 30 -28 30 -30 29 -129 -1 -56 -6 -106 -11 -113 -14 -17 -5 -58 12 -58 20 0 34 123 21 172 -14 48 8 53 50 11 61 -60 72 -91 67 -190 -2 -48 -1 -88 4 -88 12 0 28 37 28 67 0 47 14 58 35 27 21 -33 31 -99 16 -108 -16 -10 -15 -99 2 -94 6 3 13 15 15 29 9 82 18 83 46 6 17 -46 17 -61 0 -144 -8 -40 12 -46 26 -8 15 39 29 30 58 -35 38 -84 73 -79 38 5 -20 47 -5 44 35 -6 20 -25 35 -37 41 -31 16 16 -38 90 -79 109 -32 15 -39 24 -45 59 -3 23 -18 65 -32 93 -15 28 -22 51 -17 51 5 0 35 -21 66 -46 56 -46 76 -51 59 -15 -12 24 -93 86 -139 105 -19 8 -40 25 -45 38 -5 13 -15 31 -22 40 -18 25 -5 31 39 19 57 -16 113 -14 113 4 0 11 -11 15 -37 15 -21 1 -67 9 -103 18 -55 15 -69 23 -97 60 -18 24 -33 48 -33 54 0 6 24 7 65 3 54 -6 65 -5 65 8 0 19 -12 24 -92 32 -56 6 -71 12 -112 47 -32 28 -44 44 -37 51 14 14 183 57 196 49 13 -8 86 -12 108 -6 29 9 8 24 -31 23 -20 -1 -54 4 -76 9 -30 8 -53 6 -111 -9 -40 -10 -85 -23 -99 -29 -21 -8 -29 -6 -46 12 -11 12 -20 30 -20 40 0 18 -29 25 -43 11z"></path><path id="pi37QCVeU" d="M645 810 c3 -5 22 -10 41 -10 19 0 34 5 34 10 0 6 -18 10 -41 10 -24 0 -38 -4 -34 -10z"></path><path id="pihafnpfP" d="M740 810 c0 -5 14 -10 30 -10 17 0 30 5 30 10 0 6 -13 10 -30 10 -16 0 -30 -4 -30 -10z"></path><path id="pldrv611K" d="M876 791 c-7 -11 22 -23 35 -15 5 3 9 9 9 15 0 12 -37 12 -44 0z"></path><path id="pcjpsRgYU" d="M810 655 c0 -12 36 -35 56 -35 15 0 -1 22 -26 35 -27 14 -30 14 -30 0z"></path><path id="pQgolOIM9" d="M340 564 c-6 -14 -10 -32 -10 -39 0 -8 -11 -48 -25 -89 -14 -41 -25 -82 -25 -90 0 -30 18 -16 35 27 9 23 22 53 28 67 27 66 45 125 40 137 -8 22 -33 15 -43 -13z"></path><path id="p16TCQHwW4" d="M812 509 c2 -6 8 -10 13 -10 5 0 11 4 13 10 2 6 -4 11 -13 11 -9 0 -15 -5 -13 -11z"></path><path id="pLb5y4ckS" d="M499 463 c-21 -55 -35 -263 -18 -263 23 0 41 77 45 183 3 108 -6 135 -27 80z"></path><path id="pr3q5U0T4" d="M842 413 c4 -21 33 -25 33 -3 0 8 -8 16 -18 18 -14 3 -18 -1 -15 -15z"></path><path id="p12SAHr5iC" d="M571 296 c-7 -8 -9 -25 -6 -39 6 -22 4 -24 -18 -20 -29 6 -42 -18 -27 -48 14 -26 43 -26 35 0 -3 11 -1 22 5 26 6 4 10 -8 10 -30 0 -36 14 -75 28 -75 4 0 7 44 7 97 0 97 -9 120 -34 89z"></path><path id="pSgBMWPvr" d="M803 143 c-4 -11 0 -21 12 -27 10 -6 25 -19 34 -28 20 -23 31 -23 31 0 0 16 -50 72 -64 72 -4 0 -10 -8 -13 -17z"></path></g></g></svg>