<svg width="38" height="38" viewBox="0 0 38 38" fill="none" xmlns="http://www.w3.org/2000/svg">
<path d="M22.3461 28.0069L22.3438 28.0057C20.4871 26.9733 17.9422 25.5584 15.2215 22.8301C12.494 20.0989 11.081 17.5448 10.0484 15.6782L22.3461 28.0069ZM22.3461 28.0069C22.7473 28.2294 23.1137 28.434 23.4424 28.6303L22.3461 28.0069ZM15.0444 23.0066C12.2922 20.2506 10.8655 17.6716 9.831 15.8017L9.82798 15.7963L9.82753 15.7955C9.61035 15.3994 9.40828 15.0372 9.21778 14.715L8.87141 14.1307L8.77248 13.9639L8.90957 13.8266L12.6637 10.0677C12.6638 10.0676 12.6639 10.0674 12.6641 10.0673C13.0493 9.67925 13.0521 9.10925 12.7389 8.79429C12.7389 8.79425 12.7388 8.79421 12.7388 8.79418L7.1796 3.22239C6.86677 2.90885 6.29953 2.91274 5.91491 3.29897C5.91481 3.29907 5.91471 3.29917 5.91461 3.29927L4.94951 4.27616C4.54653 4.69809 3.97251 5.43088 3.54969 6.51083C3.30978 7.14172 3.16099 7.74184 3.0936 8.33562L3.09342 8.33724C2.8188 10.6238 3.00777 12.9418 4.2901 15.7212C5.57644 18.5094 7.96766 21.7719 12.1187 25.9321C16.9855 30.8097 21.3758 33.0715 24.5477 34.1149C26.1344 34.6369 27.4181 34.8546 28.3065 34.9417C28.7507 34.9853 29.0962 34.9962 29.3314 34.9961C29.449 34.9961 29.5389 34.9933 29.5999 34.9905C29.6523 34.9881 29.6828 34.9857 29.6906 34.985C30.299 34.9121 30.8981 34.7616 31.5079 34.5264C32.5801 34.1059 33.312 33.5294 33.7316 33.1228L33.7322 33.1223L34.0074 32.8572L34.0108 32.8539L34.7069 32.1575C35.0919 31.7715 35.0952 31.2016 34.7825 30.8872L15.0444 23.0066ZM15.0444 23.0066C17.79 25.7598 20.3598 27.1886 22.2199 28.2228L22.2246 28.2254L22.2248 28.2256C22.6263 28.4481 22.9894 28.651 23.3143 28.8449L23.3147 28.8452L23.8992 29.1925L24.0665 29.2919L24.2039 29.1541L27.9556 25.3927C28.3421 25.0069 28.9127 25.0037 29.2259 25.3167L34.7823 30.887L15.0444 23.0066ZM36.3699 29.2977L36.3696 29.2974L30.8101 23.7246L30.8098 23.7242C29.5989 22.5155 27.6065 22.5614 26.369 23.8017L23.7016 26.4751C23.5766 26.4055 23.4481 26.3337 23.3151 26.2589L23.314 26.2583C21.5486 25.2779 19.1539 23.9456 16.6324 21.4167L16.6324 21.4166C14.1054 18.884 12.7743 16.4813 11.7935 14.7108L11.7917 14.7074L11.7916 14.7073C11.7661 14.6613 11.7408 14.6156 11.7156 14.5701C11.6708 14.4889 11.6264 14.4088 11.5825 14.3301L13.3283 12.5826L13.3286 12.5823L14.2525 11.6551C15.4918 10.413 15.5354 8.41727 14.327 7.20549L14.3269 7.20546L8.76733 1.63199L8.76731 1.63197C7.55889 0.420814 5.56545 0.466972 4.32614 1.70909L4.32564 1.70959L2.75871 3.28899L2.58243 3.46666L2.64749 3.53106C2.16626 4.18033 1.76201 4.91435 1.45551 5.69942L1.4555 5.69941L1.45461 5.70176C1.14668 6.51445 0.953647 7.29372 0.86522 8.07633C0.117582 14.2934 2.96847 19.9411 10.5311 27.5217L10.5312 27.5217C21.025 38.0386 29.5116 37.2666 29.938 37.2209L29.941 37.2205C30.7529 37.1236 31.53 36.9291 32.3188 36.622L32.3193 36.6218C33.101 36.3156 33.8367 35.9086 34.4868 35.4235L34.5415 35.4712L34.7066 35.3092L36.294 33.7513L36.296 33.7493C37.5326 32.5074 37.5774 30.512 36.3699 29.2977Z" fill="white" stroke="white" stroke-width="0.5"/>
</svg>
