<svg width="46" height="30" viewBox="0 0 46 30" fill="none" xmlns="http://www.w3.org/2000/svg">
<path d="M41.2822 0H4.54484C2.03869 0 0 2.03859 0 4.54484V25.4552C0 27.9613 2.03869 30 4.54484 30H41.2821C43.7883 30 45.8269 27.9613 45.8269 25.4552V4.54484C45.827 2.03859 43.7884 0 41.2822 0ZM42.7972 4.54484V25.4552C42.7972 25.6942 42.7299 25.9124 42.6307 26.1136L31.9203 15.4023L42.7941 4.52849C42.7941 4.53453 42.7972 4.5389 42.7972 4.54484ZM3.02989 25.4551V4.54484C3.02989 4.5389 3.03296 4.53462 3.03296 4.52859L13.9068 15.4024L3.19565 26.1135C3.09722 25.9123 3.02989 25.6942 3.02989 25.4551ZM23.3811 19.6573C23.1311 19.9072 22.696 19.9072 22.446 19.6573L5.81937 3.02989H40.0085L23.3811 19.6573ZM16.049 17.5447L20.3038 21.7996C21.0013 22.4971 21.9282 22.8809 22.9135 22.8809C23.8988 22.8809 24.8257 22.4971 25.5233 21.7996L29.7783 17.5447L39.2028 26.9701H6.62355L16.049 17.5447Z" fill="white"/>
</svg>
