<svg class="img-fluid" id="outputsvg" xmlns="http://www.w3.org/2000/svg" style="transform: none; transform-origin: 50% 50%; cursor: move;" width="210" viewBox="0 0 8040 3680"><g id="l43OXX1hQgyos9ddkJPPfhb" fill="rgb(0,89,48)" style="transform: none;"><g></g></g><g id="lLQ3KiSSKtjOALYv1bXISa" fill="rgb(0,123,81)" style="transform: none;"><g><path id="pykStq3Oz" d="M 27 1112 c -14 -3 -17 -9 -12 -25 13 -40 18 -384 6 -391 -6 -4 -11 -16 -11 -28 0 -17 2 -18 15 -8 14 11 19 7 16 -12 -2 -13 250 -8 294 5 50 15 75 60 75 134 0 74 -12 99 -55 113 l -36 12 33 16 c 37 20 46 42 47 130 l 1 62 -29 0 c -55 0 -61 -7 -61 -71 0 -78 -16 -89 -126 -89 -96 0 -113 11 -95 61 18 53 14 76 -16 86 -16 5 -36 7 -46 5 z  m 281 -257 c 7 -14 12 -46 12 -70 0 -58 -14 -65 -134 -65 -87 0 -95 2 -101 20 -4 12 -2 27 4 33 6 8 6 18 1 27 -13 21 -12 54 2 68 8 8 47 12 108 12 94 0 97 -1 108 -25 z "></path><path id="p15dpyHUmN" d="M 490 1109 c 0 -6 -6 -9 -14 -6 -12 5 -15 -28 -16 -212 0 -120 2 -225 5 -233 5 -13 28 -16 131 -17 68 -1 140 1 159 5 30 5 35 10 35 34 0 37 -12 40 -136 40 -57 0 -104 3 -105 8 0 4 -1 30 -2 57 l -2 50 99 3 c 99 3 130 14 124 44 -5 21 -28 27 -125 27 l -91 1 -4 58 c -2 31 -3 60 -1 65 3 4 48 7 101 7 127 0 142 5 142 42 0 17 -4 27 -10 23 -5 -3 -10 -1 -10 4 0 7 -48 11 -140 11 -96 0 -140 -4 -140 -11 z "></path><path id="pn67F5NuK" d="M 857 1112 c -37 -5 -42 -22 -19 -69 10 -21 22 -54 25 -73 3 -19 13 -53 23 -75 9 -22 18 -47 19 -55 4 -34 49 -156 62 -166 7 -6 13 -16 13 -23 0 -7 21 -11 58 -11 51 0 60 3 70 23 22 40 153 438 147 446 -8 15 -57 9 -74 -8 -9 -9 -22 -29 -28 -44 -12 -26 -15 -27 -98 -27 -50 0 -85 -4 -85 -10 0 -5 -6 -10 -14 -10 -13 0 -26 26 -41 77 -7 25 -19 30 -58 25 z  m 263 -157 c 0 -11 -73 -221 -80 -228 -4 -5 -20 33 -36 82 -16 50 -32 91 -36 91 -5 0 -8 14 -8 30 l 0 30 80 0 c 44 0 80 -2 80 -5 z "></path><path id="pLmHe55TK" d="M 1318 1113 c -17 -4 -18 -24 -18 -236 0 -128 4 -226 8 -219 7 10 15 10 36 2 35 -13 46 -13 46 1 0 5 -4 7 -10 4 -5 -3 -10 -1 -10 4 0 6 5 11 11 11 5 0 9 8 8 18 -1 9 -1 90 0 180 l 1 162 103 0 c 56 0 108 4 115 9 8 5 12 21 10 37 l -3 29 -140 1 c -77 1 -148 0 -157 -3 z "></path><path id="p1HZJr7JIy" d="M 1694 1109 c -3 -6 -15 -9 -25 -6 -18 5 -19 -4 -19 -227 l 0 -232 33 1 c 18 1 38 4 43 8 7 4 11 92 13 232 1 154 -2 225 -9 220 -5 -3 -10 -1 -10 4 0 14 -17 14 -26 0 z "></path><path id="p7Xv9Y71N" d="M 1818 1113 c -13 -3 -18 -15 -18 -38 0 -28 16 -54 94 -147 51 -62 98 -112 105 -111 10 3 15 -9 13 -28 -1 -4 10 -17 23 -29 14 -13 25 -27 25 -32 0 -4 -46 -8 -102 -8 -132 0 -148 -5 -148 -40 0 -36 21 -40 204 -40 156 0 166 3 166 56 0 24 -9 40 -37 65 -21 18 -37 36 -36 40 2 4 -21 33 -50 63 -28 31 -57 63 -63 73 -6 10 -22 24 -35 30 -13 7 -20 13 -15 13 6 0 0 10 -13 21 -12 12 -19 25 -14 30 5 5 65 10 133 11 l 125 3 0 35 0 35 -170 1 c -93 1 -178 0 -187 -3 z "></path><path id="pw5v69saf" d="M 2250 1109 c 0 -6 -9 -9 -20 -6 -17 4 -20 0 -20 -28 0 -27 20 -57 114 -173 63 -77 127 -149 142 -161 l 27 -21 -119 -1 c -66 -1 -125 -1 -132 0 -17 3 -26 -24 -18 -54 l 6 -25 170 0 c 157 0 170 1 180 19 18 34 11 60 -28 104 -21 23 -49 58 -63 77 -15 19 -54 64 -88 100 -33 36 -61 69 -61 73 0 5 -5 5 -11 1 -7 -4 -10 -1 -7 7 4 11 36 15 134 19 l 129 5 3 34 c 2 20 0 31 -7 27 -5 -4 -12 -2 -16 4 -9 15 -315 14 -315 -1 z "></path><path id="p1GiPzDHoN" d="M 2629 1099 c -15 -19 -12 -33 55 -237 l 72 -217 64 -3 c 34 -2 67 1 71 5 14 14 149 420 149 448 0 24 -3 26 -36 23 -38 -3 -46 -11 -64 -60 -9 -27 -12 -28 -80 -28 -39 0 -79 -5 -90 -12 -16 -10 -22 -9 -40 11 -11 13 -20 32 -20 42 0 22 -26 49 -48 49 -9 0 -24 -9 -33 -21 z  m 278 -169 c -1 -16 -5 -30 -9 -30 -3 0 -14 -24 -23 -52 -35 -114 -65 -161 -65 -104 0 14 -13 63 -30 109 -16 47 -30 90 -30 96 0 7 29 11 80 11 l 79 0 -2 -30 z "></path><path id="pZ1v6e1ur" d="M 3077 1113 c -4 -3 -7 -21 -7 -38 0 -25 15 -51 69 -116 38 -46 74 -83 80 -82 6 2 11 -5 11 -15 0 -10 23 -43 50 -74 28 -31 50 -59 50 -62 0 -3 -46 -6 -102 -6 -132 0 -148 -5 -148 -40 0 -20 6 -29 23 -34 29 -8 311 -8 331 0 10 4 16 18 16 41 0 29 -13 50 -74 122 -41 48 -95 109 -120 135 -25 26 -46 50 -46 53 0 4 -7 15 -17 25 -15 17 -11 18 113 19 71 1 132 1 137 0 15 -2 7 67 -9 73 -21 8 -349 8 -357 -1 z "></path><path id="pbT6fbPPS" d="M 3796 1111 c -3 -5 -14 -7 -24 -4 -29 7 -71 -15 -91 -48 -24 -40 -36 -152 -26 -254 9 -95 34 -136 90 -148 129 -26 255 -15 293 26 57 62 56 329 -1 391 -12 13 -43 29 -69 35 -57 13 -165 15 -172 2 z  m 165 -90 c 23 -18 24 -25 24 -149 0 -72 -3 -134 -7 -138 -4 -4 -50 -10 -101 -13 -129 -8 -131 -7 -135 149 -4 116 -3 120 22 145 22 22 33 25 99 25 59 0 80 -4 98 -19 z "></path><path id="p3yUi8w77" d="M 4415 1096 c -7 -11 -22 -39 -32 -61 -10 -22 -21 -42 -24 -45 -13 -11 -49 -90 -49 -109 0 -11 -6 -24 -14 -28 -7 -4 -28 -37 -47 -73 -29 -59 -33 -63 -39 -40 -3 14 -2 28 3 31 5 4 7 26 3 50 -8 58 -8 58 0 179 l 7 106 -47 -1 -47 0 2 -227 c 1 -125 5 -225 10 -223 4 3 10 1 14 -5 9 -14 107 -12 126 3 18 13 121 201 171 310 17 37 34 67 37 67 3 0 5 -85 3 -189 l -4 -190 27 5 c 17 3 24 1 20 -6 -3 -5 -1 -10 4 -10 6 0 11 5 11 10 0 6 6 9 13 8 9 -2 12 48 12 227 l 0 230 -73 1 c -64 2 -75 -1 -87 -20 z "></path><path id="pm5rxp2X" d="M 4663 1113 l -23 -4 0 -235 0 -234 163 2 162 3 0 35 0 35 -117 3 -118 3 0 59 0 60 85 0 c 69 0 85 3 85 15 0 8 4 15 9 15 6 0 9 9 8 20 -1 18 -8 20 -94 20 l -93 0 0 65 0 64 118 3 117 3 0 35 0 35 -140 1 c -77 1 -150 0 -162 -3 z "></path><path id="pgzlYOvGD" d="M 5291 1109 c -51 -10 -65 -20 -86 -62 -36 -73 -31 -291 9 -349 12 -18 28 -33 36 -33 8 0 18 -4 21 -9 11 -14 171 -19 232 -6 48 10 62 17 78 43 11 18 18 43 17 57 -3 21 -9 25 -41 28 -32 3 -39 0 -44 -18 -3 -12 -17 -26 -30 -31 -39 -15 -142 -11 -179 7 -33 16 -34 18 -36 78 -2 65 -1 74 8 149 9 67 32 80 129 75 85 -4 102 -15 107 -68 l 3 -35 -62 -3 -63 -3 0 -34 0 -33 105 0 105 -1 0 74 c 0 45 -6 91 -16 114 -14 36 -22 42 -69 56 -57 16 -153 18 -224 4 z "></path><path id="p7BnmmE5Z" d="M 5805 1093 c 1 -15 33 -121 70 -235 75 -225 70 -218 151 -218 54 0 64 14 103 135 17 55 36 109 41 120 12 25 70 204 70 216 0 5 -13 9 -30 9 -16 0 -30 -5 -30 -12 0 -6 -3 -9 -6 -5 -8 7 -34 -17 -34 -32 0 -6 -8 -19 -19 -30 -16 -16 -30 -18 -112 -13 -96 5 -109 11 -109 49 0 27 -12 35 -60 40 -35 4 -37 3 -35 -24 z  m 305 -142 c 0 -6 -5 -13 -11 -16 -6 -4 -8 -13 -5 -20 3 -8 -1 -18 -8 -24 -16 -13 -50 -136 -42 -149 3 -6 0 -12 -8 -15 -16 -6 -44 24 -38 41 2 7 -1 12 -7 12 -5 0 -9 8 -9 18 2 21 -21 92 -35 110 -6 8 -11 22 -12 33 -2 17 6 19 87 19 48 0 88 -4 88 -9 z "></path><path id="p19vXuJNSK" d="M 6280 886 l 0 -234 23 -6 c 38 -10 260 -5 301 7 50 15 76 61 76 134 0 64 -16 102 -47 109 -28 7 -30 20 -4 33 24 13 41 62 41 117 0 48 -8 56 -56 59 l -34 2 0 -58 c 0 -78 -16 -89 -127 -89 l -83 0 0 74 c 0 80 -4 86 -61 86 l -29 0 0 -234 z  m 288 -22 c 17 -12 22 -25 22 -60 0 -80 -6 -84 -120 -84 l -100 0 0 80 0 80 88 0 c 63 0 94 -4 110 -16 z "></path><path id="pQjnQKboS" d="M 6759 1113 c -13 -3 -15 -33 -15 -228 0 -124 4 -225 9 -225 4 0 5 -4 2 -10 -4 -6 49 -9 142 -7 125 2 154 5 188 22 58 29 78 88 72 215 -9 168 -25 207 -96 228 -36 11 -266 15 -302 5 z  m 288 -96 c 15 -15 18 -36 18 -137 0 -154 0 -154 -135 -158 -79 -3 -100 -1 -101 10 -1 15 -1 301 0 306 1 2 46 2 101 0 79 -2 103 -7 117 -21 z "></path><path id="p1GPWhu1RY" d="M 7441 1109 c -13 -5 -32 -7 -42 -4 -16 6 -17 -7 -15 -211 1 -161 5 -219 14 -222 7 -2 12 -10 12 -18 0 -12 13 -14 63 -12 l 62 3 25 50 c 14 27 31 56 38 63 7 8 16 27 19 43 3 16 9 29 13 29 5 0 30 44 56 98 57 115 53 110 64 92 5 -8 5 -21 -1 -31 -14 -26 -12 -336 3 -345 7 -4 8 -3 4 4 -4 7 -1 12 8 12 8 0 17 -4 21 -10 3 -5 12 -7 20 -4 8 4 13 10 10 14 -3 5 -1 12 5 15 7 4 10 80 10 211 -1 203 -1 204 -25 220 -15 10 -41 14 -76 12 l -53 -3 -43 -75 c -23 -41 -42 -81 -43 -89 0 -8 -7 -22 -16 -32 -8 -9 -17 -30 -19 -45 -1 -15 -9 -32 -17 -38 -16 -12 -48 -73 -48 -91 0 -19 -27 -26 -34 -9 -3 8 -1 14 3 14 5 0 10 83 10 185 1 102 0 185 -1 184 -2 0 -14 -5 -27 -10 z "></path><path id="pJCnTpPX4" d="M 3500 879 l 0 -227 26 -6 c 14 -4 34 -4 45 -1 18 6 19 18 18 234 l 0 227 -45 0 -44 0 0 -227 z "></path><path id="pfK69xdJw" d="M 5661 892 c 1 -196 2 -213 20 -226 10 -7 16 -16 11 -20 -4 -5 4 -6 18 -4 17 2 24 8 22 21 -2 9 1 17 6 17 5 0 10 95 11 214 l 1 214 -45 -1 -46 -2 2 -213 z "></path><path id="p6c6fE3w4" d="M 7211 878 c 0 -184 3 -228 14 -228 7 0 19 -2 27 -5 7 -3 22 2 33 11 11 8 13 12 5 8 -12 -6 -13 -4 -2 7 13 15 17 75 4 83 -13 8 -13 111 -1 229 6 59 9 110 5 114 -3 3 -24 7 -46 7 l -40 2 1 -228 z "></path><path id="p1G7Lb8CBY" d="M 7905 1058 c 9 -65 10 -328 1 -356 -5 -16 -3 -24 8 -28 9 -3 16 -12 16 -20 0 -10 10 -14 30 -12 l 30 2 0 232 0 232 -46 -1 -45 -2 6 -47 z "></path><path id="p596MwgVH" d="M 2208 473 c -17 -4 -18 -24 -18 -239 l 0 -234 133 1 c 211 0 244 23 246 164 2 124 -46 158 -209 153 l -85 -3 0 80 c 0 78 -1 80 -25 82 -14 0 -33 -1 -42 -4 z  m 264 -247 c 4 -6 8 -37 8 -68 0 -71 -7 -76 -121 -79 l -84 -2 1 26 c 0 15 1 52 2 83 l 2 55 93 -2 c 54 -1 95 -6 99 -13 z "></path><path id="p13prt5oDj" d="M 2920 416 c 0 -85 -14 -96 -123 -96 -90 0 -117 15 -100 53 11 25 10 73 -1 84 -4 4 -23 8 -42 8 l -35 0 5 -215 c 2 -118 5 -223 5 -232 2 -16 16 -18 139 -18 164 0 209 12 235 61 14 26 17 49 14 101 -5 74 -17 98 -52 98 -35 0 -38 13 -5 26 38 17 52 52 48 128 l -3 61 -42 3 -43 3 0 -65 z  m -25 -182 c 8 -4 24 -24 34 -45 11 -22 15 -37 10 -33 -5 3 -9 -6 -9 -20 0 -46 -22 -56 -125 -56 -86 0 -95 2 -106 21 -8 17 -8 23 1 29 9 6 11 21 6 50 -3 22 -4 45 -1 51 7 10 164 13 190 3 z "></path><path id="pM15qmFEM" d="M 3178 473 c -16 -2 -28 -9 -28 -15 0 -5 -6 -8 -14 -5 -8 3 -24 -5 -37 -19 -12 -13 -19 -24 -15 -24 5 0 2 -7 -5 -17 -10 -12 -14 -51 -14 -152 1 -177 19 -216 105 -223 17 -1 34 -6 36 -10 9 -15 138 -8 189 10 76 27 85 53 84 229 0 129 -2 145 -22 175 -15 21 -36 37 -62 44 -38 12 -160 16 -217 7 z  m 187 -87 l 35 -15 -3 -130 c -1 -91 -6 -134 -15 -143 -19 -19 -181 -24 -205 -6 -49 37 -45 257 6 293 28 19 136 20 182 1 z "></path><path id="pRsSNW094" d="M 3631 470 c -89 -19 -115 -78 -109 -251 4 -118 25 -175 71 -197 48 -23 194 -27 260 -7 50 15 61 22 73 51 24 58 20 69 -29 72 -37 1 -43 -1 -44 -19 -1 -12 -5 -24 -8 -28 -4 -3 -49 -6 -102 -6 -89 0 -96 2 -115 25 -19 23 -20 34 -14 140 8 143 13 150 122 150 61 0 78 -4 94 -20 11 -11 20 -27 20 -35 0 -8 5 -15 10 -15 6 0 10 -7 10 -15 0 -14 -29 -22 -99 -27 -30 -3 -34 -7 -37 -35 l -4 -31 105 0 105 0 0 81 c 0 93 -12 123 -57 150 -38 22 -182 31 -252 17 z "></path><path id="p1NMTUFk6" d="M 4003 473 c -10 -3 -13 -61 -13 -239 l 0 -234 158 0 c 86 0 163 4 170 9 8 4 11 20 9 37 l -4 29 -124 2 -124 1 -1 64 -1 63 116 0 116 0 3 26 c 2 20 -2 28 -20 33 -36 9 -144 7 -172 -4 -22 -8 -26 -7 -30 13 -12 58 -14 127 -5 133 6 3 50 6 98 5 64 -1 92 2 106 14 19 14 19 15 1 8 -14 -4 -17 -3 -12 6 14 23 -58 41 -161 40 -54 0 -104 -3 -110 -6 z "></path><path id="pp4LEK3UE" d="M 4510 469 c 0 -5 -5 -7 -11 -4 -6 5 -10 -12 -11 -47 0 -29 -2 -117 -5 -195 l -4 -143 -55 0 c -31 0 -54 -4 -54 -11 0 -5 -4 -7 -10 -4 -6 4 -10 -7 -10 -25 0 -18 4 -29 10 -25 6 3 10 1 10 -5 0 -7 108 -9 358 -8 l 357 3 0 35 0 35 -77 3 c -67 2 -78 5 -83 23 -4 11 -2 25 3 32 14 17 16 341 2 332 -5 -3 -10 -2 -10 3 0 5 -16 4 -36 -2 l -35 -11 3 -170 c 2 -93 7 -177 11 -187 8 -15 -6 -16 -142 -17 l -151 -2 0 196 c 0 128 -3 194 -10 190 -5 -3 -10 -1 -10 4 0 6 -9 11 -20 11 -11 0 -20 -5 -20 -11 z "></path><path id="p19U0TbU69" d="M 5133 465 c -18 -8 -33 -17 -33 -20 0 -4 8 -27 19 -53 10 -26 42 -119 70 -207 29 -89 56 -166 60 -173 5 -9 28 -12 72 -10 l 64 3 63 180 c 68 197 87 281 66 289 -8 3 -27 0 -44 -5 -21 -8 -30 -17 -30 -33 0 -38 -19 -46 -106 -46 -54 0 -84 -4 -86 -12 -8 -23 -37 2 -48 40 -14 54 -28 63 -67 47 z  m 265 -158 c -9 -33 -61 -194 -67 -206 -12 -25 -25 -12 -38 41 -8 29 -18 57 -23 62 -6 6 -10 20 -10 32 0 13 -4 26 -10 29 -10 6 -14 48 -6 56 2 2 39 3 81 1 52 -3 75 -7 73 -15 z "></path><path id="pS7AtbyWx" d="M 5560 465 c -7 -8 -10 -25 -6 -39 8 -32 183 -246 202 -246 12 0 16 -7 13 -26 -1 -3 11 -18 25 -33 15 -15 23 -30 19 -34 -3 -4 -53 -7 -109 -7 -59 0 -106 -4 -109 -10 -4 -6 -11 -8 -16 -5 -15 10 -10 -41 5 -54 9 -8 66 -11 182 -9 l 169 3 3 36 c 2 26 -4 44 -25 70 -16 20 -34 34 -42 31 -10 -3 -12 0 -8 11 4 11 -11 35 -46 71 -29 31 -57 63 -63 73 -6 10 -23 24 -37 31 -25 12 -32 23 -28 45 0 4 -4 7 -10 7 -5 0 -7 5 -4 10 4 6 56 10 123 10 64 0 123 4 130 9 8 5 12 21 10 37 l -3 29 -181 3 c -152 2 -183 0 -194 -13 z "></path><path id="pPegBfZ18" d="M 6003 473 c -10 -3 -13 -61 -13 -239 l 0 -235 43 3 42 3 3 238 2 237 -32 -1 c -18 0 -39 -3 -45 -6 z "></path><path id="pfr4NCFYF" d="M 6280 471 c 0 -5 -18 -8 -40 -7 -79 2 -113 -73 -104 -229 2 -38 4 -83 5 -100 0 -34 24 -90 41 -101 46 -29 253 -38 303 -13 45 21 67 76 73 183 5 107 -11 197 -41 230 -12 13 -43 29 -69 35 -56 13 -168 15 -168 2 z  m 161 -90 c 23 -18 24 -26 26 -150 1 -91 -2 -133 -10 -138 -7 -4 -53 -9 -102 -11 -136 -6 -141 1 -137 196 2 63 5 76 27 97 21 22 33 25 98 25 59 0 80 -4 98 -19 z "></path><path id="p2YqttOep" d="M 6910 471 c -9 -6 -27 -34 -40 -63 -14 -29 -28 -55 -32 -58 -11 -9 -48 -93 -48 -112 0 -10 -4 -18 -10 -18 -5 0 -23 -27 -40 -59 -16 -33 -34 -62 -38 -65 -5 -3 -8 75 -6 182 l 4 188 -45 -1 -45 0 1 -232 0 -233 68 0 c 39 0 74 5 83 13 18 15 75 116 80 143 2 10 10 25 19 34 9 9 36 58 60 108 24 51 46 92 49 92 3 0 4 -88 2 -195 l -4 -195 31 0 c 16 0 33 5 36 10 4 6 11 8 16 5 5 -4 9 -2 9 4 0 5 -4 13 -10 16 -5 3 -7 35 -3 78 3 40 5 86 5 102 -1 60 0 191 2 225 l 1 35 -65 2 c -36 2 -72 -1 -80 -6 z "></path><path id="p11maoRty2" d="M 7155 470 c -3 -6 -11 -8 -16 -5 -5 4 -9 -82 -9 -218 0 -179 3 -227 14 -236 9 -8 61 -11 162 -9 l 149 3 0 35 0 35 -110 3 c -60 1 -117 5 -125 9 -8 3 -19 5 -23 4 -9 -2 1 41 12 49 3 3 6 16 6 30 0 25 0 25 115 30 112 5 115 6 118 29 2 13 -2 28 -10 32 -7 5 -59 9 -115 9 l -103 0 -1 28 c -1 15 -2 43 -3 62 l -1 35 100 2 c 139 4 147 6 143 46 l -3 32 -147 3 c -94 2 -149 -1 -153 -8 z "></path><path id="p9fY93gOu" d="M 7717 469 c -9 -5 -21 -7 -27 -4 -5 3 -8 -84 -7 -227 l 2 -233 140 -3 c 177 -4 187 -1 183 41 l -3 32 -117 3 -118 3 0 59 0 60 60 0 c 47 0 60 3 60 15 0 10 10 15 31 15 25 0 30 3 25 16 -4 11 -2 15 7 11 8 -3 20 -1 28 4 8 5 -30 8 -96 7 l -110 -1 -3 66 -3 67 98 1 c 54 1 107 2 118 3 16 1 20 8 20 36 l 0 35 -135 2 c -80 2 -142 -2 -153 -8 z "></path></g></g></svg>